#N canvas 1076 382 450 300 12;
#X obj 72 254 dac~;
#X obj 70 93 stripnote;
#X obj 70 124 mtof;
#X obj 71 202 *~ 0.1;
#X obj 71 157 osc~;
#X obj 208 69 vsl 19 162 0 0.4 0 0 empty empty empty 0 -9 0 12 #fcfcfc #000000 #000000 0 1;
#X obj 209 249 nbx 5 18 -1e+37 1e+37 0 0 empty empty empty 1 -13 0 12 #fcfcfc #000000 #0400fc 0 256;
#X msg 75 54 34.5 67.8;
#X msg 52 27 70 127;
#X connect 1 0 2 0;
#X connect 2 0 4 0;
#X connect 3 0 0 0;
#X connect 3 0 0 1;
#X connect 4 0 3 0;
#X connect 5 0 6 0;
#X connect 5 0 3 1;
#X connect 7 0 1 0;
#X connect 8 0 1 0;
