#N canvas 850 235 830 667 12;
#X floatatom 187 139 5 0 0 0 - - - 0;
#X obj 188 276 complex-mod~;
#X obj 188 208 cos~;
#X obj 228 228 cos~;
#X obj 228 204 -~ 0.25;
#X text 182 69 The complex modulator takes two signals in which it considers to be the real and imaginary part of a complex-valued signal. It then does a complex multiplication by a sinusoid to shift all frequencies up or down by any frequency shift in Hz., f 68;
#X obj 29 15 complex-mod~;
#X text 126 15 - complex amplitude modulator;
#X obj 180 313 output~;
#X floatatom 300 190 5 0 0 0 - - - 0;
#X obj 300 219 sig~;
#X text 347 243 The left output is the frquency shifted by the amount of the frequency shift. The right outlet gives us the other side band \, which is shifted by the same amount in reverse., f 44;
#X text 334 313 (for instance \, if the shift is 100 \, left output shifts the frequency up by 100 and the right shifts it down by 100), f 47;
#X obj 188 174 phasor~ 440;
#X text 482 14 <= click;
#N canvas 767 120 577 325 reference 0;
#X obj 8 52 cnv 5 550 5 empty empty INLETS: 8 18 0 13 #202020 #000000 0;
#X obj 8 174 cnv 2 550 2 empty empty OUTLETS: 8 12 0 13 #202020 #000000 0;
#X obj 8 257 cnv 2 550 2 empty empty ARGUMENT: 8 12 0 13 #202020 #000000 0;
#X obj 7 294 cnv 5 550 5 empty empty empty 8 18 0 13 #202020 #000000 0;
#X text 146 268 NONE, f 52;
#X obj 8 107 cnv 1 550 1 empty empty 2nd: 8 12 0 13 #7c7c7c #000000 0;
#X obj 8 82 cnv 1 550 1 empty empty 1st: 8 12 0 13 #7c7c7c #000000 0;
#X obj 8 221 cnv 1 550 1 empty empty 2nd: 8 12 0 13 #7c7c7c #000000 0;
#X obj 8 196 cnv 1 550 1 empty empty 1st: 8 12 0 13 #7c7c7c #000000 0;
#X obj 29 15 complex-mod~;
#X text 142 85 signal - real part of signal input., f 53;
#X text 142 114 signal - imaginary part of signal input., f 53;
#X obj 8 139 cnv 1 550 1 empty empty 3rd: 8 12 0 13 #7c7c7c #000000 0;
#X text 100 146 float/signal - frequency shift amount in hz., f 53;
#X text 138 199 signal - frequency shifted side band., f 53;
#X text 138 229 signal - opposite side band (shifted in reverse).;
#X text 126 15 - complex amplitude modulator (frequency shifter);
#X restore 388 15 pd reference;
#X obj 5 47 cnv 1 560 1 empty empty empty 8 12 0 13 #000000 #000000 0;
#X text 343 191 Frequency shift in hz;
#X text 293 136 This is also known as 'single side band modulation' and relates to ring modulation (which has two sidebands);
#X msg 546 459 \; pd dsp 0;
#X msg 546 417 \; pd dsp 1;
#N canvas 150 175 450 278 (subpatch) 0;
#X array phasor 4410 float 0;
#X coords 0 1 4409 -1 200 100 1 0 0;
#X restore 24 476 graph;
#X obj 73 397 metro 100;
#X text -1 563 -1;
#X text 6 517 0;
#X text 7 466 1;
#X obj 14 426 tabwrite~ phasor;
#X obj 73 369 loadbang;
#X text 134 427 <-- graph the output, f 10;
#N canvas 179 204 450 278 (subpatch) 0;
#X array cos 4410 float 0;
#X coords 0 1 4409 -1 200 100 1 0 0;
#X restore 281 476 graph;
#X text 256 563 -1;
#X text 263 517 0;
#X text 264 466 1;
#X text 391 427 <-- graph the output, f 10;
#X obj 271 426 tabwrite~ cos;
#X connect 0 0 13 0;
#X connect 1 0 8 0;
#X connect 1 1 8 1;
#X connect 2 0 1 0;
#X connect 2 0 34 0;
#X connect 3 0 1 1;
#X connect 4 0 3 0;
#X connect 9 0 10 0;
#X connect 10 0 1 2;
#X connect 13 0 2 0;
#X connect 13 0 4 0;
#X connect 13 0 26 0;
#X connect 22 0 26 0;
#X connect 22 0 34 0;
#X connect 27 0 22 0;
