#N canvas 527 34 472 527 12;
#X declare -stdpath ./;
#X obj 254 214 vu 15 160 empty empty -1 -8 0 12 #404040 #000000 1 0;
#N canvas 329 161 625 417 vu 0;
#X obj 59 129 env~ 1024;
#X obj 161 111 abs~;
#X obj 161 213 snapshot~;
#X obj 161 256 rmstodb;
#X obj 161 21 inlet~;
#X obj 161 288 - 100;
#X obj 59 287 - 100;
#X obj 59 361 outlet;
#X obj 161 361 outlet;
#X text 344 307 Check the help file of env~ and slop~ for more details., f 31;
#X obj 239 89 expr 1000 / $f1;
#X floatatom 239 117 5 0 0 0 - - - 0;
#X obj 161 146 slop~ 0 0 0 0 1e+09;
#X obj 239 18 inlet;
#X floatatom 239 57 5 0 0 0 - - - 0;
#X text 359 89 convert to hz;
#X text 282 118 hz;
#X text 284 57 peak decay time in ms;
#X obj 59 171 t f b;
#X text 345 132 The env~ object is dedicated to RMS analysis. Its output is in dB (0-100 range \, pd style) but needs to be converted to dBFS (and we do that by simply subtracting 100)., f 31;
#X text 345 225 The slop~ object is used here for peak detection. We need to convert the output to dB with rmstodb and also subtract by 100 to convert it to dBFS., f 31;
#X connect 0 0 18 0;
#X connect 1 0 12 0;
#X connect 2 0 3 0;
#X connect 3 0 5 0;
#X connect 4 0 0 0;
#X connect 4 0 1 0;
#X connect 5 0 8 0;
#X connect 6 0 7 0;
#X connect 10 0 11 0;
#X connect 11 0 12 3;
#X connect 12 0 2 0;
#X connect 13 0 14 0;
#X connect 14 0 10 0;
#X connect 18 0 6 0;
#X connect 18 1 2 0;
#X restore 231 171 pd vu;
#X obj 130 96 tgl 19 0 empty empty empty 17 7 0 10 #dcdcdc #000000 #000000 0 1;
#X floatatom 263 397 8 0 0 0 - - - 0;
#X floatatom 253 426 8 0 0 0 - - - 0;
#X text 325 397 Peak;
#X text 315 427 RMS;
#X floatatom 263 117 6 0 1000 0 - decay - 0;
#N canvas 601 247 362 314 noise-burst 0;
#X obj 139 166 *~;
#X obj 121 263 outlet~;
#X obj 139 137 vline~;
#X obj 68 110 noise~;
#X msg 139 107 1 \, 0 100;
#X obj 121 194 *~;
#X obj 139 75 metro 500;
#X obj 224 124 loadbang;
#X msg 224 152 \; decay 500 \; pd dsp 1;
#X obj 135 30 inlet;
#X obj 198 32 inlet;
#X connect 0 0 5 1;
#X connect 2 0 0 0;
#X connect 2 0 0 1;
#X connect 3 0 5 0;
#X connect 4 0 2 0;
#X connect 5 0 1 0;
#X connect 6 0 4 0;
#X connect 7 0 8 0;
#X connect 9 0 6 0;
#X connect 10 0 6 1;
#X coords 0 314 1 313 150 60 0;
#X restore 130 126 pd noise-burst;
#X text 337 117 peak decay time in ms, f 10;
#X obj 130 236 output~;
#X obj 60 327 declare -stdpath ./;
#X text 278 170 <-- open for analysis;
#X text 311 117 <--;
#X text 41 95 turn on --> test sound, f 12;
#X msg 223 33 set 500;
#X floatatom 224 84 5 0 0 0 - - - 0;
#X obj 265 59 bng 19 250 50 0 empty empty empty 17 7 0 10 #dfdfdf #000000 #000000;
#X connect 0 0 4 0;
#X connect 0 1 3 0;
#X connect 1 0 0 0;
#X connect 1 1 0 1;
#X connect 7 0 1 1;
#X connect 8 0 1 0;
#X connect 8 0 10 0;
#X connect 15 0 16 0;
#X connect 16 0 8 1;
#X connect 17 0 16 0;
