#N canvas 576 283 902 522 10;
#X obj -54 169 cpole~;
#X obj -54 220 dac~;
#X obj 5 217 +~ 1e-14;
#X obj -50 54 rzero~ 1;
#X obj -50 34 phasor~ 10;
#X obj 5 197 *~ 0.3;
#X obj -28 112 expr~ 0.9998*cos($v1) \; 0.9998*sin($v1);
#X obj -28 92 delread~ \$0-a 100;
#X obj 5 237 delwrite~ \$0-a 100;
#X text 209 5 Copyright oct.2011 par Mathieu BOUCHARD;
#X text 329 16 conçu pour 44100 Hz;
#X text 159 71 The [*~] changes the amount of pitch variation... the [+~] changes the base pitch (it has to be at least a tiny bit over zero)... the two 0.9998 values decide the duration of the notes (as triggered by the [rzero~])... and the feedback delay is a lot harder to explain or understand : but most interesting values seem to be divisors of the beat duration (50 \, 33.33 \, 25) as well as very low values (64/44.1=1.45124 is the lowest possible value).;
#X connect 0 0 1 0;
#X connect 0 1 1 1;
#X connect 0 1 5 0;
#X connect 2 0 8 0;
#X connect 3 0 0 0;
#X connect 3 0 0 1;
#X connect 4 0 3 0;
#X connect 5 0 2 0;
#X connect 6 0 0 2;
#X connect 6 1 0 3;
#X connect 7 0 6 0;
