#N canvas 827 239 527 327 12;
#N canvas 0 22 450 300 part2 1;
#X obj 228 71 palette/flanger.m~;
#A saved 1.37637 20.3232 0.663625 -0.49675;
#X msg 99 -1 start;
#X msg 157 -1 stop;
#X msg 216 -1 loop \$1;
#X obj 288 -1 tgl 15 1 empty empty empty 17 7 0 10 #dcdcdc #000000 #000000 1 1;
#X obj 424 -1 hsl 128 20 0.01 1 0 1 empty empty empty -2 -8 0 10 #e4e4e4 #4d4d4d #373737 226 1;
#X obj 359 -1 *~, f 5;
#X obj 99 37 play.file~ ../../SamplesPiece/japanesewoman.aiff;
#X obj 703 -250 hsl 71 16 0 7 0 1 empty empty X\ Position -2 -6 0 12 #00faff #000000 #000000 1806 1;
#X obj 700 -188 line~;
#X obj 724 -100 hsl 101 16 0.01 1 0 1 empty empty VOLUME -2 -6 0 12 #00fc04 #000000 #000000 5757 1;
#X obj 721 -69 pow 4;
#X obj 721 -27 line~;
#X obj 631 -284 mtof;
#X floatatom 631 -263 5 0 0 0 - - - 0;
#X floatatom 700 -229 5 0 0 0 - - - 0;
#X obj 701 -305 nbx 4 16 2 4096 0 1 empty empty Waveform\ size\ in\ samples 0 -8 0 10 #00faff #000000 #000000 256 256;
#X obj 631 -238 phasor~;
#X obj 631 -305 nbx 4 16 0 127 0 1 empty empty MIDI 0 -8 0 10 #00faff #000000 #000000 46 256;
#X msg 700 -209 \$1 250;
#X obj 861 -305 bng 16 250 50 0 empty empty Open\ File 0 -8 0 10 #00faff #000000 #000000;
#X obj 721 -48 pack f 20;
#N canvas 694 330 450 220 oscilloscope 0;
#N canvas 0 22 450 278 (subpatch) 0;
#X array \$0-scope 441 float 0;
#X coords 0 1 440 -1 100 70 1 0 0;
#X restore 20 45 graph;
#X obj 150 112 tabwrite~ \$0-scope;
#X obj 150 20 inlet~;
#X obj 210 20 loadbang;
#X msg 210 41 1;
#X obj 210 62 metro 100;
#X connect 2 0 1 0;
#X connect 3 0 4 0;
#X connect 4 0 5 0;
#X connect 5 0 1 0;
#X coords 0 -1 1 1 113 108 1 10 10;
#X restore 848 -100 pd oscilloscope;
#X obj 861 -284 s \$0-open;
#X obj 701 -284 s \$0-size;
#X obj 793 -250 hsl 71 16 0 1 0 1 empty empty Y\ Position -2 -6 0 12 #00faff #000000 #000000 1669 1;
#X obj 790 -188 line~;
#X floatatom 790 -229 5 0 0 0 - - - 0;
#X msg 790 -209 \$1 250;
#X obj 883 -250 hsl 71 16 0 3 0 1 empty empty Z\ Position -2 -6 0 12 #00faff #000000 #000000 7000 1;
#X obj 880 -188 line~;
#X floatatom 880 -229 5 0 0 0 - - - 0;
#X msg 880 -209 \$1 250;
#X obj 701 -147 os.wavetable3d~ \$0-wavetable 256 8 2;
#X obj 701 20 *~;
#N canvas 808 387 969 530 how-to-generate-wavetables 0;
#X obj 53 199 cnv 15 450 90 empty empty empty 20 12 0 14 #dfdfdf #404040 0;
#X obj 62 221 bng 16 250 50 0 \$0-generate-s \$0-generate-r Generate 0 -8 0 10 #00ff04 #000000 #000000;
#X obj 122 221 nbx 5 16 3 13 0 1 \$0-genSize-s \$0-genSize-r Size: 256 samples 0 -8 0 10 #000000 #ffffff #000000 8 256;
#X msg 746 103 2 \$1;
#X obj 746 124 pow;
#X obj 372 221 bng 16 250 50 0 \$0-writeWavetable-s \$0-writeWavetable-r Write\ wavetable\ to\ wav 0 -8 0 10 #ff0400 #000000 #000000;
#X obj 122 256 nbx 5 16 1 127 0 1 \$0-frames-s \$0-frames-r Frames 0 -8 0 10 #000000 #ffffff #000000 64 256;
#X msg 773 166 label Size: \$1 samples;
#X text 746 62 GUI:Size:nbx;
#X obj 621 214 r \$0-frames-s;
#X obj 621 307 *;
#X obj 646 281 t b f;
#X obj 183 256 cnv 16 130 16 empty \$0-displayTotal Total: 16576 samples 2 8 0 10 #000000 #00ff04 0;
#X obj 583 418 s \$0-displayTotal;
#X msg 583 397 label Total: \$1 samples;
#X obj 556 449 array size \$0-wavetable;
#X obj 60 152 tgl 16 0 empty empty empty 17 7 0 10 #00faff #000000 #000000 0 1;
#N canvas 144 22 891 989 PhaseModulation 0;
#X obj 302 341 until;
#X obj 430 367 + 1;
#X msg 405 289 0;
#X obj 334 393 t f f;
#X obj 368 186 until;
#X obj 500 212 + 1;
#X msg 485 160 0;
#X obj 458 134 t b b;
#X obj 470 212 i;
#X obj 322 289 v \$0-size;
#X obj 390 367 i;
#X obj 368 160 v \$0-frames-s;
#X obj 501 734 +;
#X obj 334 723 sin;
#X obj 516 708 *;
#X obj 322 315 t f f;
#X obj 334 445 /;
#X obj 334 697 * 6.28319;
#X obj 378 263 t b b;
#X text 546 718 <- onset to next frame;
#X text 530 212 <- counter for frames;
#X text 460 367 <- counter for waveform size in samples;
#X text 154 425 linear phase from 0 to 1 ->;
#X text 204 723 sinewave function ->;
#X text 188 160 Retrieve number of frames ->;
#X text 132 288 Retrieve number of samples ->;
#X text 445 289 <- Reset counter;
#X text 515 160 <- Reset counter;
#X obj 349 419 - 0;
#X text 264 697 two pi ->;
#X obj 334 546 t f f;
#X obj 379 619 sin;
#X obj 379 593 * 6.28319;
#X obj 334 671 +;
#X obj 379 655 *;
#X text 409 567 <- Ratio;
#X text 264 667 Carrier ––;
#X text 379 547 Modulator ––;
#X obj 489 494 t f f;
#X text 507 629 <- Modulation sweep amount;
#X obj 516 666 t f b;
#X obj 543 687 v \$0-size;
#X text 128 10 GUI:Generate:bang;
#X obj 128 97 spigot;
#X obj 161 76 inlet;
#X text 161 56 Inlet 1: Render: on/off;
#X obj 128 30 r \$0-generate;
#X obj 128 118 t b b;
#X obj 376 760 tabwrite \$0-buffer;
#X obj 56 563 t b b;
#X obj 56 605 until;
#X obj 86 656 i;
#X obj 116 656 + 1;
#X msg 101 621 0;
#X obj 36 749 array get \$0-buffer;
#X obj 36 677 t f f;
#X obj 56 861 array set \$0-wavetable;
#X obj 36 770 t l l;
#X obj 36 831 list append;
#X msg 77 796 \$1 \$2 \$3;
#X obj 128 537 t b b;
#X obj 56 584 v \$0-frames-s;
#X obj 36 728 pack f f;
#X obj 36 707 *;
#X obj 155 644 v \$0-size;
#X obj 189 690 + 3;
#X obj 174 828 *;
#X obj 155 665 t f f;
#X obj 117 691 t f f;
#X text 225 818 <- Append the first three samples to the end of each frame = proper interpolation reading of each frame without clicks.;
#X obj 477 629 * 1;
#X obj 477 524 t f b;
#X obj 504 545 v \$0-rows-s;
#X obj 504 566 t f f;
#X obj 531 587 - 1;
#X obj 477 608 /;
#X obj 477 587 %;
#X obj 379 567 *;
#X obj 470 237 t b f f;
#X obj 560 268 t f b;
#X obj 560 310 div;
#X obj 560 331 + 1;
#X obj 587 289 v \$0-rows-s;
#X text 568 250 Use number of rows to change the ratio;
#X connect 0 0 10 0;
#X connect 1 0 10 1;
#X connect 2 0 10 1;
#X connect 3 0 16 0;
#X connect 3 1 12 0;
#X connect 4 0 8 0;
#X connect 5 0 8 1;
#X connect 6 0 8 1;
#X connect 7 0 11 0;
#X connect 7 1 6 0;
#X connect 8 0 5 0;
#X connect 8 0 78 0;
#X connect 9 0 15 0;
#X connect 10 0 1 0;
#X connect 10 0 3 0;
#X connect 11 0 4 0;
#X connect 12 0 48 1;
#X connect 13 0 48 0;
#X connect 14 0 12 1;
#X connect 15 0 0 0;
#X connect 15 1 28 0;
#X connect 16 0 30 0;
#X connect 17 0 13 0;
#X connect 18 0 9 0;
#X connect 18 1 2 0;
#X connect 28 0 16 1;
#X connect 30 0 33 0;
#X connect 30 1 77 0;
#X connect 31 0 34 0;
#X connect 32 0 31 0;
#X connect 33 0 17 0;
#X connect 34 0 33 1;
#X connect 38 0 71 0;
#X connect 38 1 40 0;
#X connect 40 0 14 0;
#X connect 40 1 41 0;
#X connect 41 0 14 1;
#X connect 43 0 47 0;
#X connect 44 0 43 1;
#X connect 46 0 43 0;
#X connect 47 0 60 0;
#X connect 47 1 7 0;
#X connect 49 0 61 0;
#X connect 49 1 53 0;
#X connect 50 0 51 0;
#X connect 51 0 52 0;
#X connect 51 0 55 0;
#X connect 52 0 51 1;
#X connect 53 0 51 1;
#X connect 54 0 57 0;
#X connect 55 0 63 0;
#X connect 55 1 66 0;
#X connect 57 0 58 0;
#X connect 57 1 59 0;
#X connect 58 0 56 0;
#X connect 59 0 58 1;
#X connect 60 0 49 0;
#X connect 60 1 64 0;
#X connect 61 0 50 0;
#X connect 62 0 54 0;
#X connect 63 0 62 0;
#X connect 64 0 67 0;
#X connect 65 0 66 1;
#X connect 66 0 56 1;
#X connect 67 0 68 0;
#X connect 67 1 65 0;
#X connect 68 0 63 1;
#X connect 68 1 62 1;
#X connect 70 0 34 1;
#X connect 71 0 76 0;
#X connect 71 1 72 0;
#X connect 72 0 73 0;
#X connect 73 0 76 1;
#X connect 73 1 74 0;
#X connect 74 0 75 1;
#X connect 75 0 70 0;
#X connect 76 0 75 0;
#X connect 77 0 32 0;
#X connect 78 0 18 0;
#X connect 78 1 38 0;
#X connect 78 2 79 0;
#X connect 79 0 80 0;
#X connect 79 1 82 0;
#X connect 80 0 81 0;
#X connect 81 0 77 1;
#X connect 82 0 80 1;
#X restore 60 174 pd PhaseModulation;
#X obj 537 155 r \$0-generate-s;
#X text 537 135 GUI:Generate:bang;
#X obj 539 475 s \$0-generate;
#X obj 646 260 + 3;
#X obj 556 364 f;
#X obj 776 291 r \$0-size;
#X obj 751 265 r \$0-frames-s;
#X obj 751 338 *;
#X obj 776 312 t b f;
#X obj 746 385 array size \$0-buffer;
#X obj 746 82 r \$0-genSize-s;
#X obj 773 187 s \$0-genSize-r;
#X obj 646 239 r \$0-size;
#X obj 746 364 f;
#X obj 372 256 bng 16 250 50 0 \$0-writePdWavetable-s \$0-writePdWavetable-r Write\ Pd\ wavetable\ to\ wav 0 -8 0 10 #ff0400 #000000 #000000;
#X obj 537 176 t b b b;
#X obj 746 145 t f f;
#X obj 731 192 f;
#X obj 731 213 s \$0-size;
#X obj 556 338 t b b;
#X text 537 25 Change frame size \, resize buffer and wavetable arrays and send a bang to generate the waveforms;
#X text 621 194 GUI:Frames:nbx;
#X text 751 245 GUI:Frames:nbx;
#X obj 621 328 t f f;
#X obj 53 456 soundfiler;
#X msg 53 362 write -wave ./pd-wavetable \$1-wavetable;
#X obj 53 320 r \$0-writePdWavetable-s;
#X obj 53 341 f \$0;
#X obj 83 409 f \$0;
#X obj 83 388 r \$0-writeWavetable-s;
#X msg 83 430 write -wave ./wavetable \$1-buffer;
#X text 53 300 GUI:writeWavetables:bang;
#X text 60 14 This subpatch shows how to generate our own wavetables in both Pd format (with guard points) and external format (without guard points).;
#X text 60 64 First select enable only one of the following toggles. Then click on the "Generate" bang to generate the selected wavetable.;
#X text 60 114 Open each subpatch to see how to generate each wavetable.;
#X obj 242 221 nbx 3 16 1 127 0 1 \$0-rows-s \$0-rows-r Rows 0 -8 0 10 #000000 #ffffff #000000 8 256;
#X connect 3 0 4 0;
#X connect 4 0 34 0;
#X connect 7 0 29 0;
#X connect 9 0 10 0;
#X connect 10 0 41 0;
#X connect 11 0 10 0;
#X connect 11 1 10 1;
#X connect 14 0 13 0;
#X connect 16 0 17 0;
#X connect 18 0 33 0;
#X connect 21 0 11 0;
#X connect 22 0 15 0;
#X connect 23 0 26 0;
#X connect 24 0 25 0;
#X connect 25 0 31 1;
#X connect 26 0 25 0;
#X connect 26 1 25 1;
#X connect 28 0 3 0;
#X connect 30 0 21 0;
#X connect 31 0 27 0;
#X connect 33 0 20 0;
#X connect 33 1 37 0;
#X connect 33 2 35 0;
#X connect 34 0 35 1;
#X connect 34 1 7 0;
#X connect 35 0 36 0;
#X connect 37 0 22 0;
#X connect 37 1 31 0;
#X connect 41 0 22 1;
#X connect 41 1 14 0;
#X connect 43 0 42 0;
#X connect 44 0 45 0;
#X connect 45 0 43 0;
#X connect 46 0 48 0;
#X connect 47 0 46 0;
#X connect 48 0 42 0;
#X restore 997 -80 pd how-to-generate-wavetables;
#N canvas 290 22 753 736 how-to-import-external-wavetables 0;
#X obj 454 386 soundfiler;
#X floatatom 454 407 7 0 0 0 - - - 0;
#X obj 70 352 t b b;
#X obj 12 399 until;
#X obj 82 420 i;
#X obj 112 420 + 1;
#X msg 97 385 0;
#X obj 82 591 array get \$0-buffer;
#X obj 434 599 array size \$0-wavetable;
#X obj 82 461 t f f;
#X obj 171 690 array set \$0-wavetable;
#X obj 454 344 list append \$0;
#X obj 82 612 t l l;
#X obj 82 664 list append;
#X obj 250 476 + 3;
#X obj 250 455 r \$0-size;
#X obj 82 565 pack f f;
#X msg 145 638 \$1 \$2 \$3;
#X obj 434 573 *;
#X obj 454 448 /;
#X obj 454 489 v \$0-frames;
#X obj 12 378 v \$0-frames;
#X obj 434 547 v \$0-frames;
#X obj 82 544 *;
#X obj 100 497 r \$0-size;
#X obj 100 518 t f f;
#X obj 235 497 *;
#X obj 469 427 r \$0-size;
#X floatatom 454 469 5 0 0 0 - - - 0;
#X obj 415 318 t b b s;
#X text 494 469 <- number of frames in file;
#X text 474 324 // load file to buffer array;
#X text 162 664 <- append last three samples from waveform;
#X obj 514 557 + 3;
#X obj 514 536 r \$0-size;
#X text 444 516 Resize array considering the guard points;
#X text 210 435 Onset to write to (next frame);
#X text 142 354 | \; | \; | \; | <- Count number of frames \; | \; | \; | \;;
#X obj 242 256 loadbang;
#X msg 454 365 read -resize \$1 \$2-buffer;
#X msg 242 297 symbol ./PLAITS01.WAV;
#X text 202 524 | \; | \; | \; | <- get waveform from buffer array \; | \; | \; | \;;
#X text 321 690 <- write adapted waveforms to wavetable array;
#X obj 415 271 r \$0-open;
#X obj 415 292 openpanel;
#X text 12 44 Usually the frames of a wavetable have a size of 2^n samples (256 \, 512 \, 1024). In order to reproduce them correctly \, the size should be 2^n + 3 to account for the 4 point interpolation used by [tabread4~]. These three extra points \, which are also called "guard points" \, can be injected by appending the last three samples of the waveform into each frame.;
#X text 475 292 <- get file directory;
#X obj 405 71 array define \$0-wavetable;
#X obj 405 31 array define \$0-buffer;
#X text 405 11 Original wavetable goes here;
#X text 405 51 Adapted wavetable goes here;
#X text 504 405 <- number of samples;
#X obj 12 258 pdcontrol;
#X msg 32 232 browse https://www.kimurataro.com/free-wavetables.html;
#X msg 12 212 browse https://waveeditonline.com/;
#X text 12 192 Free \, open-source wavetables;
#X text 12 12 To import an external wavetable it must be adapted for Pd using the following code:;
#X obj 242 277 del 0;
#X text 12 134 To avoid doing this process everytime \, export the adapted pd wavetable version into a wave file and load it into an array.;
#X symbolatom 438 147 20 0 0 0 - - - 0;
#X obj 405 121 bng 16 250 50 0 empty empty Write\ Pd\ wavetable\ to\ wav 0 -8 0 10 #ff0400 #000000 #000000;
#X obj 405 230 soundfiler;
#X obj 405 188 pack s \$0;
#X obj 405 167 symbol;
#X text 438 127 Wavetable name;
#X msg 405 209 write -wave ./\$1 \$2-wavetable;
#X obj 581 112 loadbang;
#X msg 581 132 symbol pd-wavetable;
#X connect 0 0 1 0;
#X connect 1 0 19 0;
#X connect 2 0 21 0;
#X connect 2 1 6 0;
#X connect 3 0 4 0;
#X connect 4 0 5 0;
#X connect 4 0 9 0;
#X connect 5 0 4 1;
#X connect 6 0 4 1;
#X connect 7 0 12 0;
#X connect 9 0 23 0;
#X connect 9 1 26 0;
#X connect 11 0 39 0;
#X connect 12 0 13 0;
#X connect 12 1 17 0;
#X connect 13 0 10 0;
#X connect 14 0 26 1;
#X connect 15 0 14 0;
#X connect 16 0 7 0;
#X connect 17 0 13 1;
#X connect 18 0 8 0;
#X connect 19 0 28 0;
#X connect 21 0 3 0;
#X connect 22 0 18 0;
#X connect 23 0 16 0;
#X connect 24 0 25 0;
#X connect 25 0 23 1;
#X connect 25 1 16 1;
#X connect 26 0 10 1;
#X connect 27 0 19 1;
#X connect 28 0 20 0;
#X connect 29 0 2 0;
#X connect 29 1 22 0;
#X connect 29 2 11 0;
#X connect 33 0 18 1;
#X connect 34 0 33 0;
#X connect 38 0 57 0;
#X connect 39 0 0 0;
#X connect 40 0 29 0;
#X connect 43 0 44 0;
#X connect 44 0 29 0;
#X connect 53 0 52 0;
#X connect 54 0 52 0;
#X connect 57 0 40 0;
#X connect 59 0 63 1;
#X connect 60 0 63 0;
#X connect 62 0 65 0;
#X connect 63 0 62 0;
#X connect 65 0 61 0;
#X connect 66 0 67 0;
#X connect 67 0 59 0;
#X restore 997 -100 pd how-to-import-external-wavetables;
#X msg 324 -249 stop;
#X obj 71 -249 tgl 18 1 empty empty empty 17 7 0 10 #dcdcdc #000000 #000000 1 1;
#X obj 351 -206 hsl 128 20 0.01 1 0 1 empty empty empty -2 -8 0 10 #e4e4e4 #4d4d4d #373737 8122 1;
#X obj 95 -208 else/tabplayer~ \$0-voices;
#X msg 97 -249 loop \$1;
#X msg 164 -249 play 17000 54000 100;
#X obj 126 -288 display;
#X obj 126 -316 sample~ \$0-voices ../../SamplesPiece/womenvoices.wav;
#X obj 282 -206 *~;
#X msg 381 -249 play 17000 22000 100;
#X obj 611 398 dac~;
#X obj 495 102 vsl 19 162 0.01 1 1 1 empty empty empty 0 -9 0 12 #fcfcfc #000000 #000000 6205 1;
#X obj 541 102 inlet;
#X msg 541 135 set \$1;
#X obj 611 364 *~;
#X obj 571 325 sig~;
#X msg 492 325 set \$1;
#X obj 492 363 outlet;
#X connect 0 0 51 1 32.................X....nX....F....JF...nD....;
#X connect 1 0 7 0;
#X connect 2 0 7 0;
#X connect 3 0 7 0;
#X connect 4 0 3 0;
#X connect 5 0 6 1;
#X connect 6 0 0 0;
#X connect 7 0 6 0;
#X connect 8 0 15 0;
#X connect 9 0 33 1;
#X connect 10 0 11 0;
#X connect 11 0 21 0;
#X connect 12 0 34 1;
#X connect 12 0 34 0;
#X connect 13 0 14 0;
#X connect 14 0 17 0;
#X connect 15 0 19 0;
#X connect 16 0 24 0;
#X connect 17 0 33 0;
#X connect 18 0 13 0;
#X connect 19 0 9 0;
#X connect 20 0 23 0;
#X connect 21 0 12 0;
#X connect 25 0 27 0;
#X connect 26 0 33 2;
#X connect 27 0 28 0;
#X connect 28 0 26 0;
#X connect 29 0 31 0;
#X connect 30 0 33 3;
#X connect 31 0 32 0;
#X connect 32 0 30 0;
#X connect 33 0 34 0;
#X connect 33 0 22 0;
#X connect 34 0 51 1;
#X connect 37 0 40 0;
#X connect 38 0 41 0;
#X connect 39 0 45 1;
#X connect 40 0 45 0;
#X connect 41 0 40 0;
#X connect 42 0 40 0;
#X connect 44 0 43 0;
#X connect 45 0 51 1 48.................vA...HI....b....RB....G....UA...vA...PU...PAB...;
#X connect 46 0 40 0;
#X connect 48 0 52 0;
#X connect 48 0 53 0;
#X connect 49 0 50 0;
#X connect 49 0 52 0 32.................WA...3A...vU....d....bK....;
#X connect 50 0 48 0;
#X connect 51 0 47 0;
#X connect 51 0 47 1;
#X connect 52 0 51 0;
#X connect 53 0 54 0;
#X restore 429 468 pd part2;
#N canvas 0 22 450 300 part1 0;
#X obj 635 668 dac~;
#X obj 519 405 vsl 19 162 0.01 1 1 1 empty empty empty 0 -9 0 12 #fcfcfc #000000 #000000 2166 1;
#N canvas 0 22 450 300 crossfader 0;
#X obj 424 298 *~;
#X obj 568 298 *~;
#X obj 518 203 inlet;
#X obj 424 203 inlet~;
#X obj 593 203 inlet~;
#X obj 518 391 outlet~;
#X obj 518 339 +~;
#X obj 470 298 outlet;
#X obj 624 298 outlet;
#X obj 447 259 expr 1 - $f1;
#X obj 579 259 expr $f1;
#X connect 0 0 6 0;
#X connect 1 0 6 1;
#X connect 2 0 9 0;
#X connect 2 0 10 0;
#X connect 3 0 0 0;
#X connect 4 0 1 0;
#X connect 6 0 5 0;
#X connect 9 0 0 1;
#X connect 9 0 7 0;
#X connect 10 0 1 1;
#X connect 10 0 8 0;
#X restore 102 446 pd crossfader;
#X floatatom 72 483 6 0 0 0 - - - 12;
#X floatatom 189 483 6 0 0 0 - - - 12;
#N canvas 416 316 467 443 fen-hanning 0;
#X obj 45 7 inlet;
#N canvas 0 22 450 300 (subpatch) 0;
#X array hanning 512 float 0;
#X coords 0 1 511 0 200 120 1;
#X restore 42 233 graph;
#X msg 120 87 0;
#X obj 53 111 osc~;
#X obj 53 63 samplerate~;
#X obj 53 134 *~ -0.5;
#X obj 53 157 +~ 0.5;
#X text 28 223 1;
#X text 20 343 0;
#X text 36 356 0;
#X obj 53 87 / 512;
#X obj 45 40 bng 15 250 50 0 empty empty empty 0 -6 0 8 #fcfcfc #000000 #000000;
#X text 136 359 511;
#X obj 45 182 tabwrite~ hanning;
#X text 109 39 Hanning window:;
#X text 211 123 comment;
#X floatatom 138 123 5 0 0 0 - - - 0;
#X connect 0 0 11 0;
#X connect 2 0 3 1;
#X connect 3 0 5 0;
#X connect 4 0 10 0;
#X connect 5 0 6 0;
#X connect 6 0 13 0;
#X connect 10 0 3 0;
#X connect 10 0 16 0;
#X connect 11 0 4 0;
#X connect 11 0 2 0;
#X connect 11 0 13 0;
#X restore 1150 553 pd fen-hanning;
#X obj 1150 523 loadbang;
#X obj 856 365 palette/flanger.m~;
#A saved 2.03771 12.2872 0.571 -1;
#X obj 289 162 palette/flanger.m~;
#A saved 1.37637 20.3232 0.663625 -1;
#X msg 160 90 start;
#X msg 218 90 stop;
#X msg 277 90 loop \$1;
#X obj 349 90 tgl 15 1 empty empty empty 17 7 0 10 #dcdcdc #000000 #000000 1 1;
#X obj 72 94 adc~;
#X obj 72 230 vu 35 120 empty empty -1 -8 0 10 #e4e4e4 #373737 1 0;
#N canvas 329 161 625 417 vu 0;
#X obj 59 129 env~ 1024;
#X obj 161 111 abs~;
#X obj 161 213 snapshot~;
#X obj 161 256 rmstodb;
#X obj 161 21 inlet~;
#X obj 161 288 - 100;
#X obj 59 287 - 100;
#X obj 59 361 outlet;
#X obj 161 361 outlet;
#X text 344 307 Check the help file of env~ and slop~ for more details., f 31;
#X obj 239 89 expr 1000 / $f1;
#X floatatom 239 117 5 0 0 0 - - - 0;
#X obj 161 146 slop~ 0 0 0 0 1e+09;
#X obj 239 18 inlet;
#X floatatom 239 57 5 0 0 0 - - - 0;
#X text 359 89 convert to hz;
#X text 282 118 hz;
#X text 284 57 peak decay time in ms;
#X obj 59 171 t f b;
#X text 345 132 The env~ object is dedicated to RMS analysis. Its output is in dB (0-100 range \, pd style) but needs to be converted to dBFS (and we do that by simply subtracting 100)., f 31;
#X text 345 225 The slop~ object is used here for peak detection. We need to convert the output to dB with rmstodb and also subtract by 100 to convert it to dBFS., f 31;
#X connect 0 0 18 0;
#X connect 1 0 12 0;
#X connect 2 0 3 0;
#X connect 3 0 5 0;
#X connect 4 0 0 0;
#X connect 4 0 1 0;
#X connect 5 0 8 0;
#X connect 6 0 7 0;
#X connect 10 0 11 0;
#X connect 11 0 12 3;
#X connect 12 0 2 0;
#X connect 13 0 14 0;
#X connect 14 0 10 0;
#X connect 18 0 6 0;
#X connect 18 1 2 0;
#X restore 72 174 pd vu;
#X obj 856 217 palette/eq.m~;
#X obj 508 128 hsl 128 20 0.01 1 1 0 empty empty empty -2 -8 0 10 #e4e4e4 #4d4d4d #373737 0 1;
#X obj 452 128 *~, f 5;
#X obj 160 128 play.file~ ../../SamplesPiece/isthatyou.wav;
#X msg 155 0 start;
#X msg 213 0 stop;
#X msg 272 0 loop \$1;
#X obj 344 0 tgl 15 1 empty empty empty 17 7 0 10 #dcdcdc #000000 #000000 1 1;
#X obj 551 38 hsl 128 20 0.01 1 1 0 empty empty empty -2 -8 0 10 #e4e4e4 #4d4d4d #373737 0 1;
#X obj 505 38 *~, f 5;
#X obj 155 38 play.file~ ../../SamplesPiece/pastorSteveSpeaking.wav;
#X obj 747 107 tgl 18 1 empty empty empty 17 7 0 10 #dcdcdc #000000 #000000 1 1;
#X obj 1027 150 hsl 128 20 0.01 1 1 0 empty empty empty -2 -8 0 10 #e4e4e4 #4d4d4d #373737 0 1;
#X msg 773 107 loop \$1;
#X obj 802 68 display;
#X obj 958 150 *~;
#X obj 802 40 sample~ \$0-paljoey ../../SamplesPiece/Higher_Now_SmoothRemix.wav, f 69;
#X obj 771 148 else/tabplayer~ \$0-paljoey;
#X obj 918 175 bng 25 250 50 0 empty empty empty 17 7 0 10 #e4e4e4 #4d4d4d #373737;
#X msg 1000 107 stop;
#X msg 840 107 play 7500 60000 105;
#X obj 565 405 inlet;
#X msg 565 438 set \$1;
#X obj 635 634 *~;
#X obj 595 595 sig~;
#X msg 490 613 set \$1;
#X obj 490 651 outlet;
#X connect 1 0 40 0;
#X connect 1 0 41 0;
#X connect 2 0 3 0;
#X connect 2 2 4 0;
#X connect 6 0 5 0;
#X connect 7 0 39 1;
#X connect 9 0 19 0;
#X connect 10 0 19 0;
#X connect 11 0 19 0;
#X connect 12 0 11 0;
#X connect 13 0 15 0;
#X connect 13 1 15 0;
#X connect 15 0 14 0;
#X connect 15 1 14 1;
#X connect 16 0 7 0;
#X connect 17 0 18 1;
#X connect 18 0 8 0;
#X connect 18 0 39 1 32.................hB...HL...fn....BC...Xd....;
#X connect 19 0 18 0;
#X connect 20 0 26 0;
#X connect 21 0 26 0;
#X connect 22 0 26 0;
#X connect 23 0 22 0;
#X connect 24 0 25 1;
#X connect 25 0 39 1 32.................e....zH...vG....MB....j....;
#X connect 26 0 25 0;
#X connect 27 0 29 0;
#X connect 28 0 31 1;
#X connect 29 0 33 0;
#X connect 31 0 16 0 48.................P..........D.........bB...vl++++m....r4++++K....;
#X connect 32 0 30 0;
#X connect 33 0 31 0;
#X connect 33 1 34 0;
#X connect 35 0 33 0;
#X connect 36 0 33 0;
#X connect 37 0 38 0;
#X connect 37 0 40 0 32.................WA...3A...vU....d....bK....;
#X connect 38 0 1 0;
#X connect 39 0 0 0;
#X connect 39 0 0 1;
#X connect 40 0 39 0;
#X connect 41 0 42 0;
#X restore 277 468 pd part1;
#X obj 281 293 vsl 19 162 0.01 1 1 1 empty empty empty 0 -9 0 12 #fcfcfc #000000 #000000 2166 1;
#X obj 433 293 vsl 19 162 0.01 1 1 1 empty empty empty 0 -9 0 12 #fcfcfc #000000 #000000 6205 1;
#X obj 597 293 vsl 19 162 0.01 1 1 1 empty empty empty 0 -9 0 12 #fcfcfc #000000 #000000 2974 1;
#N canvas 0 22 450 300 part3 0;
#X msg 296 165 stop;
#X obj 136 126 display;
#X obj 346 273 hsl 128 20 0.01 1 1 1 empty empty empty -2 -8 0 10 #e4e4e4 #4d4d4d #373737 12303 1;
#X obj 276 275 *~;
#X obj 794 165 tgl 18 1 empty empty empty 17 7 0 10 #dcdcdc #000000 #000000 1 1;
#X obj 1074 208 hsl 128 20 0.01 1 1 1 empty empty empty -2 -8 0 10 #e4e4e4 #4d4d4d #373737 10722 1;
#X msg 820 165 loop \$1;
#X obj 849 126 display;
#X obj 1005 208 *~;
#X msg 887 165 play 0 54000 100;
#X obj 849 98 sample~ \$0-eau ../../SamplesPiece/STE-043-eau-joli-filet.wav;
#X obj 818 206 else/tabplayer~ \$0-eau;
#X obj 136 98 sample~ \$0-ines ../../SamplesPiece/ines.wav;
#X obj 104 273 else/tabplayer~ \$0-ines;
#X msg 1047 165 stop;
#X msg 136 165 play 2000 16000 100;
#X obj 206 230 bng 25 250 50 0 empty empty empty 17 7 0 10 #e4e4e4 #4d4d4d #373737;
#X msg 391 165 play 32000 40000 100;
#X obj 307 333 tgl 18 1 empty empty empty 17 7 0 10 #dcdcdc #000000 #000000 1 1;
#X obj 570 376 hsl 128 20 0.01 1 1 1 empty empty empty -2 -8 0 10 #e4e4e4 #4d4d4d #373737 12700 1;
#X msg 333 333 loop \$1;
#X obj 502 376 *~;
#X obj 333 376 else/tabplayer~ \$0-ines;
#X obj 420 203 bng 25 250 50 0 empty empty empty 17 7 0 10 #e4e4e4 #4d4d4d #373737;
#X obj 420 235 delay 8000;
#X msg 404 333 play 38000 40000 100;
#X obj 701 614 tgl 18 1 empty empty empty 17 7 0 10 #dcdcdc #000000 #000000 1 1;
#X obj 981 657 hsl 128 20 0.01 2 0 1 empty empty empty -2 -8 0 10 #e4e4e4 #4d4d4d #373737 12700 1;
#X msg 727 614 loop \$1;
#X obj 756 575 display;
#X obj 912 657 *~;
#X msg 794 614 play 0 54000 100;
#X msg 934 614 stop;
#X obj 756 547 sample~ \$0-cloches ../../SamplesPiece/cloches.wav;
#X obj 725 655 else/tabplayer~ \$0-cloches;
#X msg 567 333 stop;
#X obj 282 235 delay 14000;
#X obj 223 672 dac~;
#X obj 107 376 vsl 19 162 0.01 1 1 1 empty empty empty 0 -9 0 12 #fcfcfc #000000 #000000 2974 1;
#X obj 153 376 inlet;
#X msg 153 409 set \$1;
#X obj 223 638 *~;
#X obj 183 599 sig~;
#X msg 86 580 set \$1;
#X obj 86 618 outlet;
#X connect 0 0 13 0 32.................R....vw+++uD....b7+++eD....;
#X connect 2 0 3 1;
#X connect 3 0 41 1;
#X connect 4 0 6 0;
#X connect 5 0 8 1;
#X connect 6 0 11 0;
#X connect 8 0 41 1;
#X connect 9 0 11 0;
#X connect 10 0 7 0;
#X connect 11 0 8 0;
#X connect 12 0 1 0;
#X connect 13 0 3 0 48.................G....TI...vA....UB...n9+++Oq....p++++yJ...v6++++;
#X connect 14 0 11 0;
#X connect 15 0 13 0 32.................h....v6+++uH....79+++eD....;
#X connect 15 0 16 0 32.................i....DB...vH....g....XB....;
#X connect 16 0 36 0;
#X connect 17 0 13 0 32.................Z....Lt+++uF....i6+++aH....;
#X connect 17 0 23 0;
#X connect 18 0 20 0;
#X connect 19 0 21 1;
#X connect 20 0 22 0;
#X connect 21 0 41 1;
#X connect 22 0 21 0 48.................G....TI...vA....UB...X9+++ep....l++++mJ...P6++++;
#X connect 23 0 24 0;
#X connect 24 0 25 0 32.................G....3M...vA....dC...fP....;
#X connect 25 0 22 0;
#X connect 26 0 28 0;
#X connect 27 0 30 1;
#X connect 28 0 34 0;
#X connect 30 0 41 1 64.................Y....Xn+++eF....F5+++W8+++ur8+++U++++Ka+++e0++++a0+++W8++++V8+++Z++++C;
#X connect 31 0 34 0;
#X connect 32 0 34 0;
#X connect 33 0 29 0;
#X connect 34 0 30 0 48.................G....nJ...vA....pB...j9++++t....o++++uK...v6++++;
#X connect 35 0 22 0;
#X connect 36 0 17 0 64.................F....TE...fA....UA...T7+++eU....E++++WE...fn++++sA...H5+++ea....m9+++C;
#X connect 38 0 42 0;
#X connect 38 0 43 0;
#X connect 39 0 40 0;
#X connect 39 0 42 0 32.................WA...3A...vU....d....bK....;
#X connect 40 0 38 0;
#X connect 41 0 37 0;
#X connect 41 0 37 1;
#X connect 42 0 41 0;
#X connect 43 0 44 0;
#X restore 593 468 pd part3;
#X obj 759 293 vsl 19 162 0.01 1 1 1 empty empty empty 0 -9 0 12 #fcfcfc #000000 #000000 6003 1;
#N canvas 0 22 450 300 part4 0;
#X obj 363 475 hip~ 3;
#X obj 363 497 clip~ -1 1;
#X obj 363 432 catch~ \$0-mct;
#X obj 545 194 loadbang;
#X obj 545 236 array set \$0-scale;
#X obj 545 257 array define \$0-scale;
#X obj 363 346 mtof;
#X obj 363 367 mct~;
#X obj 363 409 throw~ \$0-mct;
#X obj 363 388 /~ 2;
#X obj 363 453 *~ 0.9;
#X obj 620 54 vsl 17 127 1 127 0 1 empty empty VELOCITY 0 -9 0 10 #fcfcfc #000000 #000000 10466 1;
#X obj 620 189 nbx 3 17 1 127 0 0 empty empty empty 0 -8 0 10 #fcfcfc #000000 #000000 0 256;
#X obj 335 48 unpack f f;
#X obj 620 211 v \$0-vel;
#X obj 510 111 v \$0-vel;
#X obj 510 90 sel 127;
#X obj 335 111 % 5;
#X obj 335 132 tabread \$0-scale;
#X obj 335 153 +;
#X obj 445 118 div 5;
#X obj 445 139 * 12;
#X obj 335 90 t f f;
#X obj 465 236 pack f f f;
#X obj 465 257 s \$0-poly;
#X obj 363 283 r \$0-poly;
#X obj 363 304 route 1;
#X obj 363 325 unpack f f;
#X obj 335 69 + 5;
#X msg 545 215 0 2 5 7 9;
#X obj 445 174 notein;
#X obj 453 346 mtof;
#X obj 453 367 mct~;
#X obj 453 409 throw~ \$0-mct;
#X obj 453 388 /~ 2;
#X obj 453 283 r \$0-poly;
#X obj 453 325 unpack f f;
#X obj 453 304 route 2;
#X obj 543 346 mtof;
#X obj 543 367 mct~;
#X obj 543 409 throw~ \$0-mct;
#X obj 543 388 /~ 2;
#X obj 543 283 r \$0-poly;
#X obj 543 325 unpack f f;
#X obj 633 346 mtof;
#X obj 633 367 mct~;
#X obj 633 409 throw~ \$0-mct;
#X obj 633 388 /~ 2;
#X obj 633 283 r \$0-poly;
#X obj 633 325 unpack f f;
#X obj 543 304 route 3;
#X obj 633 304 route 4;
#X obj 723 346 mtof;
#X obj 723 367 mct~;
#X obj 723 409 throw~ \$0-mct;
#X obj 723 388 /~ 2;
#X obj 723 283 r \$0-poly;
#X obj 723 325 unpack f f;
#X obj 813 346 mtof;
#X obj 813 367 mct~;
#X obj 813 409 throw~ \$0-mct;
#X obj 813 388 /~ 2;
#X obj 813 283 r \$0-poly;
#X obj 813 325 unpack f f;
#X obj 723 304 route 5;
#X obj 813 304 route 6;
#X obj 465 215 poly 6 1;
#X obj 335 6 r \$0-key;
#N canvas 240 74 187 121 keyboard 0;
#N canvas 4 23 491 309 z-m 0;
#X obj 32 120 t b b;
#X msg 51 142 stop;
#X obj 51 164 del 50;
#X msg 51 186 0;
#X obj 32 208 change;
#X obj 32 32 key;
#X obj 32 76 keyup;
#X obj 32 98 sel 122;
#X obj 32 54 sel 122;
#X obj 92 120 t b b;
#X msg 111 142 stop;
#X obj 111 164 del 50;
#X msg 111 186 0;
#X obj 92 208 change;
#X obj 92 32 key;
#X obj 92 76 keyup;
#X obj 152 120 t b b;
#X msg 171 142 stop;
#X obj 171 164 del 50;
#X msg 171 186 0;
#X obj 152 208 change;
#X obj 152 32 key;
#X obj 152 76 keyup;
#X obj 212 120 t b b;
#X msg 231 142 stop;
#X obj 231 164 del 50;
#X msg 231 186 0;
#X obj 212 208 change;
#X obj 212 32 key;
#X obj 212 76 keyup;
#X obj 92 98 sel 120;
#X obj 92 54 sel 120;
#X obj 152 98 sel 99;
#X obj 152 54 sel 99;
#X obj 212 98 sel 118;
#X obj 212 54 sel 118;
#X msg 32 230 1 \$1;
#X obj 272 120 t b b;
#X msg 291 142 stop;
#X obj 291 164 del 50;
#X msg 291 186 0;
#X obj 272 208 change;
#X obj 272 32 key;
#X obj 272 76 keyup;
#X obj 272 98 sel 98;
#X obj 272 54 sel 98;
#X obj 332 120 t b b;
#X msg 351 142 stop;
#X obj 351 164 del 50;
#X msg 351 186 0;
#X obj 332 208 change;
#X obj 332 32 key;
#X obj 332 76 keyup;
#X obj 332 98 sel 110;
#X obj 332 54 sel 110;
#X obj 392 120 t b b;
#X msg 411 142 stop;
#X obj 411 164 del 50;
#X msg 411 186 0;
#X obj 392 208 change;
#X obj 392 32 key;
#X obj 392 76 keyup;
#X obj 392 98 sel 109;
#X obj 392 54 sel 109;
#X msg 92 230 2 \$1;
#X msg 152 230 3 \$1;
#X msg 212 230 4 \$1;
#X msg 272 230 5 \$1;
#X msg 332 230 6 \$1;
#X msg 392 230 7 \$1;
#X msg 32 186 127;
#X msg 92 186 127;
#X msg 152 186 127;
#X msg 212 186 127;
#X msg 272 186 127;
#X msg 332 186 127;
#X msg 392 186 127;
#X obj 32 252 s \$0-key;
#X obj 92 252 s \$0-key;
#X obj 152 252 s \$0-key;
#X obj 212 252 s \$0-key;
#X obj 272 252 s \$0-key;
#X obj 332 252 s \$0-key;
#X obj 392 252 s \$0-key;
#X connect 0 0 70 0;
#X connect 0 1 1 0;
#X connect 1 0 2 0;
#X connect 2 0 3 0;
#X connect 3 0 4 0;
#X connect 4 0 36 0;
#X connect 5 0 8 0;
#X connect 6 0 7 0;
#X connect 7 0 2 0;
#X connect 8 0 0 0;
#X connect 9 0 71 0;
#X connect 9 1 10 0;
#X connect 10 0 11 0;
#X connect 11 0 12 0;
#X connect 12 0 13 0;
#X connect 13 0 64 0;
#X connect 14 0 31 0;
#X connect 15 0 30 0;
#X connect 16 0 72 0;
#X connect 16 1 17 0;
#X connect 17 0 18 0;
#X connect 18 0 19 0;
#X connect 19 0 20 0;
#X connect 20 0 65 0;
#X connect 21 0 33 0;
#X connect 22 0 32 0;
#X connect 23 0 73 0;
#X connect 23 1 24 0;
#X connect 24 0 25 0;
#X connect 25 0 26 0;
#X connect 26 0 27 0;
#X connect 27 0 66 0;
#X connect 28 0 35 0;
#X connect 29 0 34 0;
#X connect 30 0 11 0;
#X connect 31 0 9 0;
#X connect 32 0 18 0;
#X connect 33 0 16 0;
#X connect 34 0 25 0;
#X connect 35 0 23 0;
#X connect 36 0 77 0;
#X connect 37 0 74 0;
#X connect 37 1 38 0;
#X connect 38 0 39 0;
#X connect 39 0 40 0;
#X connect 40 0 41 0;
#X connect 41 0 67 0;
#X connect 42 0 45 0;
#X connect 43 0 44 0;
#X connect 44 0 39 0;
#X connect 45 0 37 0;
#X connect 46 0 75 0;
#X connect 46 1 47 0;
#X connect 47 0 48 0;
#X connect 48 0 49 0;
#X connect 49 0 50 0;
#X connect 50 0 68 0;
#X connect 51 0 54 0;
#X connect 52 0 53 0;
#X connect 53 0 48 0;
#X connect 54 0 46 0;
#X connect 55 0 76 0;
#X connect 55 1 56 0;
#X connect 56 0 57 0;
#X connect 57 0 58 0;
#X connect 58 0 59 0;
#X connect 59 0 69 0;
#X connect 60 0 63 0;
#X connect 61 0 62 0;
#X connect 62 0 57 0;
#X connect 63 0 55 0;
#X connect 64 0 78 0;
#X connect 65 0 79 0;
#X connect 66 0 80 0;
#X connect 67 0 81 0;
#X connect 68 0 82 0;
#X connect 69 0 83 0;
#X connect 70 0 4 0;
#X connect 71 0 13 0;
#X connect 72 0 20 0;
#X connect 73 0 27 0;
#X connect 74 0 41 0;
#X connect 75 0 50 0;
#X connect 76 0 59 0;
#X restore 12 72 pd z-m;
#N canvas 4 23 718 321 a-ñ 0;
#X obj 32 120 t b b;
#X msg 51 142 stop;
#X obj 51 164 del 50;
#X msg 51 186 0;
#X obj 32 208 change;
#X obj 32 32 key;
#X obj 32 76 keyup;
#X obj 92 120 t b b;
#X msg 111 142 stop;
#X obj 111 164 del 50;
#X msg 111 186 0;
#X obj 92 208 change;
#X obj 92 32 key;
#X obj 92 76 keyup;
#X obj 152 120 t b b;
#X msg 171 142 stop;
#X obj 171 164 del 50;
#X msg 171 186 0;
#X obj 152 208 change;
#X obj 152 32 key;
#X obj 152 76 keyup;
#X obj 212 120 t b b;
#X msg 231 142 stop;
#X obj 231 164 del 50;
#X msg 231 186 0;
#X obj 212 208 change;
#X obj 212 32 key;
#X obj 212 76 keyup;
#X obj 272 120 t b b;
#X msg 291 142 stop;
#X obj 291 164 del 50;
#X msg 291 186 0;
#X obj 272 208 change;
#X obj 272 32 key;
#X obj 272 76 keyup;
#X obj 332 120 t b b;
#X msg 351 142 stop;
#X obj 351 164 del 50;
#X msg 351 186 0;
#X obj 332 208 change;
#X obj 332 32 key;
#X obj 332 76 keyup;
#X obj 392 120 t b b;
#X msg 411 142 stop;
#X obj 411 164 del 50;
#X msg 411 186 0;
#X obj 392 208 change;
#X obj 392 32 key;
#X obj 392 76 keyup;
#X obj 32 54 sel 97;
#X obj 32 98 sel 97;
#X obj 92 54 sel 115;
#X obj 152 54 sel 100;
#X obj 212 54 sel 102;
#X obj 272 54 sel 103;
#X obj 332 54 sel 104;
#X obj 392 54 sel 106;
#X obj 452 120 t b b;
#X msg 471 142 stop;
#X obj 471 164 del 50;
#X msg 471 186 0;
#X obj 452 208 change;
#X obj 452 32 key;
#X obj 452 76 keyup;
#X obj 512 120 t b b;
#X msg 531 142 stop;
#X obj 531 164 del 50;
#X msg 531 186 0;
#X obj 512 208 change;
#X obj 512 32 key;
#X obj 512 76 keyup;
#X obj 512 54 sel 108;
#X obj 452 54 sel 107;
#X obj 572 120 t b b;
#X msg 591 142 stop;
#X obj 591 164 del 50;
#X msg 591 186 0;
#X obj 572 208 change;
#X obj 572 32 key;
#X obj 572 76 keyup;
#X obj 572 54 sel 241;
#X obj 92 98 sel 115;
#X obj 152 98 sel 100;
#X obj 212 98 sel 102;
#X obj 272 98 sel 103;
#X obj 332 98 sel 104;
#X obj 392 98 sel 106;
#X obj 452 98 sel 107;
#X obj 512 98 sel 108;
#X obj 572 98 sel 241;
#X msg 32 230 8 \$1;
#X msg 92 230 9 \$1;
#X msg 152 230 10 \$1;
#X msg 212 230 11 \$1;
#X msg 272 230 12 \$1;
#X msg 332 230 13 \$1;
#X msg 392 230 14 \$1;
#X msg 452 230 15 \$1;
#X msg 512 230 16 \$1;
#X msg 572 230 17 \$1;
#X msg 32 186 127;
#X msg 92 186 127;
#X msg 152 186 127;
#X msg 212 186 127;
#X msg 272 186 127;
#X msg 332 186 127;
#X msg 392 186 127;
#X msg 452 186 127;
#X msg 512 186 127;
#X msg 572 186 127;
#X obj 32 252 s \$0-key;
#X obj 92 252 s \$0-key;
#X obj 152 252 s \$0-key;
#X obj 212 252 s \$0-key;
#X obj 272 252 s \$0-key;
#X obj 332 252 s \$0-key;
#X obj 392 252 s \$0-key;
#X obj 452 252 s \$0-key;
#X obj 512 252 s \$0-key;
#X obj 572 252 s \$0-key;
#X connect 0 0 100 0;
#X connect 0 1 1 0;
#X connect 1 0 2 0;
#X connect 2 0 3 0;
#X connect 3 0 4 0;
#X connect 4 0 90 0;
#X connect 5 0 49 0;
#X connect 6 0 50 0;
#X connect 7 0 101 0;
#X connect 7 1 8 0;
#X connect 8 0 9 0;
#X connect 9 0 10 0;
#X connect 10 0 11 0;
#X connect 11 0 91 0;
#X connect 12 0 51 0;
#X connect 13 0 81 0;
#X connect 14 0 102 0;
#X connect 14 1 15 0;
#X connect 15 0 16 0;
#X connect 16 0 17 0;
#X connect 17 0 18 0;
#X connect 18 0 92 0;
#X connect 19 0 52 0;
#X connect 20 0 82 0;
#X connect 21 0 103 0;
#X connect 21 1 22 0;
#X connect 22 0 23 0;
#X connect 23 0 24 0;
#X connect 24 0 25 0;
#X connect 25 0 93 0;
#X connect 26 0 53 0;
#X connect 27 0 83 0;
#X connect 28 0 104 0;
#X connect 28 1 29 0;
#X connect 29 0 30 0;
#X connect 30 0 31 0;
#X connect 31 0 32 0;
#X connect 32 0 94 0;
#X connect 33 0 54 0;
#X connect 34 0 84 0;
#X connect 35 0 105 0;
#X connect 35 1 36 0;
#X connect 36 0 37 0;
#X connect 37 0 38 0;
#X connect 38 0 39 0;
#X connect 39 0 95 0;
#X connect 40 0 55 0;
#X connect 41 0 85 0;
#X connect 42 0 106 0;
#X connect 42 1 43 0;
#X connect 43 0 44 0;
#X connect 44 0 45 0;
#X connect 45 0 46 0;
#X connect 46 0 96 0;
#X connect 47 0 56 0;
#X connect 48 0 86 0;
#X connect 49 0 0 0;
#X connect 50 0 2 0;
#X connect 51 0 7 0;
#X connect 52 0 14 0;
#X connect 53 0 21 0;
#X connect 54 0 28 0;
#X connect 55 0 35 0;
#X connect 56 0 42 0;
#X connect 57 0 107 0;
#X connect 57 1 58 0;
#X connect 58 0 59 0;
#X connect 59 0 60 0;
#X connect 60 0 61 0;
#X connect 61 0 97 0;
#X connect 62 0 72 0;
#X connect 63 0 87 0;
#X connect 64 0 108 0;
#X connect 64 1 65 0;
#X connect 65 0 66 0;
#X connect 66 0 67 0;
#X connect 67 0 68 0;
#X connect 68 0 98 0;
#X connect 69 0 71 0;
#X connect 70 0 88 0;
#X connect 71 0 64 0;
#X connect 72 0 57 0;
#X connect 73 0 109 0;
#X connect 73 1 74 0;
#X connect 74 0 75 0;
#X connect 75 0 76 0;
#X connect 76 0 77 0;
#X connect 77 0 99 0;
#X connect 78 0 80 0;
#X connect 79 0 89 0;
#X connect 80 0 73 0;
#X connect 81 0 9 0;
#X connect 82 0 16 0;
#X connect 83 0 23 0;
#X connect 84 0 30 0;
#X connect 85 0 37 0;
#X connect 86 0 44 0;
#X connect 87 0 59 0;
#X connect 88 0 66 0;
#X connect 89 0 75 0;
#X connect 90 0 110 0;
#X connect 91 0 111 0;
#X connect 92 0 112 0;
#X connect 93 0 113 0;
#X connect 94 0 114 0;
#X connect 95 0 115 0;
#X connect 96 0 116 0;
#X connect 97 0 117 0;
#X connect 98 0 118 0;
#X connect 99 0 119 0;
#X connect 100 0 4 0;
#X connect 101 0 11 0;
#X connect 102 0 18 0;
#X connect 103 0 25 0;
#X connect 104 0 32 0;
#X connect 105 0 39 0;
#X connect 106 0 46 0;
#X connect 107 0 61 0;
#X connect 108 0 68 0;
#X connect 109 0 77 0;
#X restore 12 52 pd a-ñ;
#N canvas 4 23 718 321 q-p 0;
#X obj 32 120 t b b;
#X msg 51 142 stop;
#X obj 51 164 del 50;
#X msg 51 186 0;
#X obj 32 208 change;
#X obj 32 32 key;
#X obj 32 76 keyup;
#X obj 92 120 t b b;
#X msg 111 142 stop;
#X obj 111 164 del 50;
#X msg 111 186 0;
#X obj 92 208 change;
#X obj 92 32 key;
#X obj 92 76 keyup;
#X obj 152 120 t b b;
#X msg 171 142 stop;
#X obj 171 164 del 50;
#X msg 171 186 0;
#X obj 152 208 change;
#X obj 152 32 key;
#X obj 152 76 keyup;
#X obj 212 120 t b b;
#X msg 231 142 stop;
#X obj 231 164 del 50;
#X msg 231 186 0;
#X obj 212 208 change;
#X obj 212 32 key;
#X obj 212 76 keyup;
#X obj 272 120 t b b;
#X msg 291 142 stop;
#X obj 291 164 del 50;
#X msg 291 186 0;
#X obj 272 208 change;
#X obj 272 32 key;
#X obj 272 76 keyup;
#X obj 332 120 t b b;
#X msg 351 142 stop;
#X obj 351 164 del 50;
#X msg 351 186 0;
#X obj 332 208 change;
#X obj 332 32 key;
#X obj 332 76 keyup;
#X obj 392 120 t b b;
#X msg 411 142 stop;
#X obj 411 164 del 50;
#X msg 411 186 0;
#X obj 392 208 change;
#X obj 392 32 key;
#X obj 392 76 keyup;
#X obj 452 120 t b b;
#X msg 471 142 stop;
#X obj 471 164 del 50;
#X msg 471 186 0;
#X obj 452 208 change;
#X obj 452 32 key;
#X obj 452 76 keyup;
#X obj 512 120 t b b;
#X msg 531 142 stop;
#X obj 531 164 del 50;
#X msg 531 186 0;
#X obj 512 208 change;
#X obj 512 32 key;
#X obj 512 76 keyup;
#X obj 572 120 t b b;
#X msg 591 142 stop;
#X obj 591 164 del 50;
#X msg 591 186 0;
#X obj 572 208 change;
#X obj 572 32 key;
#X obj 572 76 keyup;
#X obj 32 54 sel 113;
#X obj 92 54 sel 119;
#X obj 152 54 sel 101;
#X obj 212 54 sel 114;
#X obj 272 54 sel 116;
#X obj 332 54 sel 121;
#X obj 392 54 sel 117;
#X obj 452 54 sel 105;
#X obj 512 54 sel 111;
#X obj 572 54 sel 112;
#X obj 32 98 sel 113;
#X obj 92 98 sel 119;
#X obj 152 98 sel 101;
#X obj 212 98 sel 114;
#X obj 272 98 sel 116;
#X obj 332 98 sel 121;
#X obj 392 98 sel 117;
#X obj 452 98 sel 105;
#X obj 512 98 sel 111;
#X obj 572 98 sel 112;
#X msg 32 230 18 \$1;
#X msg 92 230 19 \$1;
#X msg 152 230 20 \$1;
#X msg 212 230 21 \$1;
#X msg 272 230 22 \$1;
#X msg 332 230 23 \$1;
#X msg 392 230 24 \$1;
#X msg 452 230 25 \$1;
#X msg 512 230 26 \$1;
#X msg 572 230 27 \$1;
#X msg 32 186 127;
#X msg 92 186 127;
#X msg 152 186 127;
#X msg 212 186 127;
#X msg 272 186 127;
#X msg 332 186 127;
#X msg 392 186 127;
#X msg 452 186 127;
#X msg 512 186 127;
#X msg 572 186 127;
#X obj 32 252 s \$0-key;
#X obj 92 252 s \$0-key;
#X obj 152 252 s \$0-key;
#X obj 212 252 s \$0-key;
#X obj 272 252 s \$0-key;
#X obj 332 252 s \$0-key;
#X obj 392 252 s \$0-key;
#X obj 452 252 s \$0-key;
#X obj 512 252 s \$0-key;
#X obj 572 252 s \$0-key;
#X connect 0 0 100 0;
#X connect 0 1 1 0;
#X connect 1 0 2 0;
#X connect 2 0 3 0;
#X connect 3 0 4 0;
#X connect 4 0 90 0;
#X connect 5 0 70 0;
#X connect 6 0 80 0;
#X connect 7 0 101 0;
#X connect 7 1 8 0;
#X connect 8 0 9 0;
#X connect 9 0 10 0;
#X connect 10 0 11 0;
#X connect 11 0 91 0;
#X connect 12 0 71 0;
#X connect 13 0 81 0;
#X connect 14 0 102 0;
#X connect 14 1 15 0;
#X connect 15 0 16 0;
#X connect 16 0 17 0;
#X connect 17 0 18 0;
#X connect 18 0 92 0;
#X connect 19 0 72 0;
#X connect 20 0 82 0;
#X connect 21 0 103 0;
#X connect 21 1 22 0;
#X connect 22 0 23 0;
#X connect 23 0 24 0;
#X connect 24 0 25 0;
#X connect 25 0 93 0;
#X connect 26 0 73 0;
#X connect 27 0 83 0;
#X connect 28 0 104 0;
#X connect 28 1 29 0;
#X connect 29 0 30 0;
#X connect 30 0 31 0;
#X connect 31 0 32 0;
#X connect 32 0 94 0;
#X connect 33 0 74 0;
#X connect 34 0 84 0;
#X connect 35 0 105 0;
#X connect 35 1 36 0;
#X connect 36 0 37 0;
#X connect 37 0 38 0;
#X connect 38 0 39 0;
#X connect 39 0 95 0;
#X connect 40 0 75 0;
#X connect 41 0 85 0;
#X connect 42 0 106 0;
#X connect 42 1 43 0;
#X connect 43 0 44 0;
#X connect 44 0 45 0;
#X connect 45 0 46 0;
#X connect 46 0 96 0;
#X connect 47 0 76 0;
#X connect 48 0 86 0;
#X connect 49 0 107 0;
#X connect 49 1 50 0;
#X connect 50 0 51 0;
#X connect 51 0 52 0;
#X connect 52 0 53 0;
#X connect 53 0 97 0;
#X connect 54 0 77 0;
#X connect 55 0 87 0;
#X connect 56 0 108 0;
#X connect 56 1 57 0;
#X connect 57 0 58 0;
#X connect 58 0 59 0;
#X connect 59 0 60 0;
#X connect 60 0 98 0;
#X connect 61 0 78 0;
#X connect 62 0 88 0;
#X connect 63 0 109 0;
#X connect 63 1 64 0;
#X connect 64 0 65 0;
#X connect 65 0 66 0;
#X connect 66 0 67 0;
#X connect 67 0 99 0;
#X connect 68 0 79 0;
#X connect 69 0 89 0;
#X connect 70 0 0 0;
#X connect 71 0 7 0;
#X connect 72 0 14 0;
#X connect 73 0 21 0;
#X connect 74 0 28 0;
#X connect 75 0 35 0;
#X connect 76 0 42 0;
#X connect 77 0 49 0;
#X connect 78 0 56 0;
#X connect 79 0 63 0;
#X connect 80 0 2 0;
#X connect 81 0 9 0;
#X connect 82 0 16 0;
#X connect 83 0 23 0;
#X connect 84 0 30 0;
#X connect 85 0 37 0;
#X connect 86 0 44 0;
#X connect 87 0 51 0;
#X connect 88 0 58 0;
#X connect 89 0 65 0;
#X connect 90 0 110 0;
#X connect 91 0 111 0;
#X connect 92 0 112 0;
#X connect 93 0 113 0;
#X connect 94 0 114 0;
#X connect 95 0 115 0;
#X connect 96 0 116 0;
#X connect 97 0 117 0;
#X connect 98 0 118 0;
#X connect 99 0 119 0;
#X connect 100 0 4 0;
#X connect 101 0 11 0;
#X connect 102 0 18 0;
#X connect 103 0 25 0;
#X connect 104 0 32 0;
#X connect 105 0 39 0;
#X connect 106 0 46 0;
#X connect 107 0 53 0;
#X connect 108 0 60 0;
#X connect 109 0 67 0;
#X restore 12 32 pd q-p;
#N canvas 4 23 718 321 1-0 0;
#X obj 32 120 t b b;
#X msg 51 142 stop;
#X obj 51 164 del 50;
#X msg 51 186 0;
#X obj 32 208 change;
#X obj 32 32 key;
#X obj 32 76 keyup;
#X obj 92 120 t b b;
#X msg 111 142 stop;
#X obj 111 164 del 50;
#X msg 111 186 0;
#X obj 92 208 change;
#X obj 92 32 key;
#X obj 92 76 keyup;
#X obj 152 120 t b b;
#X msg 171 142 stop;
#X obj 171 164 del 50;
#X msg 171 186 0;
#X obj 152 208 change;
#X obj 152 32 key;
#X obj 152 76 keyup;
#X obj 212 120 t b b;
#X msg 231 142 stop;
#X obj 231 164 del 50;
#X msg 231 186 0;
#X obj 212 208 change;
#X obj 212 32 key;
#X obj 212 76 keyup;
#X obj 272 120 t b b;
#X msg 291 142 stop;
#X obj 291 164 del 50;
#X msg 291 186 0;
#X obj 272 208 change;
#X obj 272 32 key;
#X obj 272 76 keyup;
#X obj 332 120 t b b;
#X msg 351 142 stop;
#X obj 351 164 del 50;
#X msg 351 186 0;
#X obj 332 208 change;
#X obj 332 32 key;
#X obj 332 76 keyup;
#X obj 392 120 t b b;
#X msg 411 142 stop;
#X obj 411 164 del 50;
#X msg 411 186 0;
#X obj 392 208 change;
#X obj 392 32 key;
#X obj 392 76 keyup;
#X obj 452 120 t b b;
#X msg 471 142 stop;
#X obj 471 164 del 50;
#X msg 471 186 0;
#X obj 452 208 change;
#X obj 452 32 key;
#X obj 452 76 keyup;
#X obj 512 120 t b b;
#X msg 531 142 stop;
#X obj 531 164 del 50;
#X msg 531 186 0;
#X obj 512 208 change;
#X obj 512 32 key;
#X obj 512 76 keyup;
#X obj 572 120 t b b;
#X msg 591 142 stop;
#X obj 591 164 del 50;
#X msg 591 186 0;
#X obj 572 208 change;
#X obj 572 32 key;
#X obj 572 76 keyup;
#X obj 32 54 sel 49;
#X obj 92 54 sel 50;
#X obj 152 54 sel 51;
#X obj 212 54 sel 52;
#X obj 272 54 sel 53;
#X obj 332 54 sel 54;
#X obj 392 54 sel 55;
#X obj 452 54 sel 56;
#X obj 512 54 sel 57;
#X obj 572 54 sel 48;
#X obj 32 98 sel 49;
#X obj 92 98 sel 50;
#X obj 152 98 sel 51;
#X obj 212 98 sel 52;
#X obj 272 98 sel 53;
#X obj 332 98 sel 54;
#X obj 392 98 sel 55;
#X obj 452 98 sel 56;
#X obj 512 98 sel 57;
#X obj 572 98 sel 48;
#X msg 32 230 28 \$1;
#X msg 92 230 29 \$1;
#X msg 152 230 30 \$1;
#X msg 212 230 31 \$1;
#X msg 272 230 32 \$1;
#X msg 332 230 33 \$1;
#X msg 392 230 34 \$1;
#X msg 452 230 35 \$1;
#X msg 512 230 36 \$1;
#X msg 572 230 37 \$1;
#X msg 32 186 127;
#X msg 92 186 127;
#X msg 152 186 127;
#X msg 212 186 127;
#X msg 272 186 127;
#X msg 332 186 127;
#X msg 392 186 127;
#X msg 452 186 127;
#X msg 512 186 127;
#X msg 572 186 127;
#X obj 32 252 s \$0-key;
#X obj 92 252 s \$0-key;
#X obj 152 252 s \$0-key;
#X obj 212 252 s \$0-key;
#X obj 272 252 s \$0-key;
#X obj 332 252 s \$0-key;
#X obj 392 252 s \$0-key;
#X obj 452 252 s \$0-key;
#X obj 512 252 s \$0-key;
#X obj 572 252 s \$0-key;
#X connect 0 0 100 0;
#X connect 0 1 1 0;
#X connect 1 0 2 0;
#X connect 2 0 3 0;
#X connect 3 0 4 0;
#X connect 4 0 90 0;
#X connect 5 0 70 0;
#X connect 6 0 80 0;
#X connect 7 0 101 0;
#X connect 7 1 8 0;
#X connect 8 0 9 0;
#X connect 9 0 10 0;
#X connect 10 0 11 0;
#X connect 11 0 91 0;
#X connect 12 0 71 0;
#X connect 13 0 81 0;
#X connect 14 0 102 0;
#X connect 14 1 15 0;
#X connect 15 0 16 0;
#X connect 16 0 17 0;
#X connect 17 0 18 0;
#X connect 18 0 92 0;
#X connect 19 0 72 0;
#X connect 20 0 82 0;
#X connect 21 0 103 0;
#X connect 21 1 22 0;
#X connect 22 0 23 0;
#X connect 23 0 24 0;
#X connect 24 0 25 0;
#X connect 25 0 93 0;
#X connect 26 0 73 0;
#X connect 27 0 83 0;
#X connect 28 0 104 0;
#X connect 28 1 29 0;
#X connect 29 0 30 0;
#X connect 30 0 31 0;
#X connect 31 0 32 0;
#X connect 32 0 94 0;
#X connect 33 0 74 0;
#X connect 34 0 84 0;
#X connect 35 0 105 0;
#X connect 35 1 36 0;
#X connect 36 0 37 0;
#X connect 37 0 38 0;
#X connect 38 0 39 0;
#X connect 39 0 95 0;
#X connect 40 0 75 0;
#X connect 41 0 85 0;
#X connect 42 0 106 0;
#X connect 42 1 43 0;
#X connect 43 0 44 0;
#X connect 44 0 45 0;
#X connect 45 0 46 0;
#X connect 46 0 96 0;
#X connect 47 0 76 0;
#X connect 48 0 86 0;
#X connect 49 0 107 0;
#X connect 49 1 50 0;
#X connect 50 0 51 0;
#X connect 51 0 52 0;
#X connect 52 0 53 0;
#X connect 53 0 97 0;
#X connect 54 0 77 0;
#X connect 55 0 87 0;
#X connect 56 0 108 0;
#X connect 56 1 57 0;
#X connect 57 0 58 0;
#X connect 58 0 59 0;
#X connect 59 0 60 0;
#X connect 60 0 98 0;
#X connect 61 0 78 0;
#X connect 62 0 88 0;
#X connect 63 0 109 0;
#X connect 63 1 64 0;
#X connect 64 0 65 0;
#X connect 65 0 66 0;
#X connect 66 0 67 0;
#X connect 67 0 99 0;
#X connect 68 0 79 0;
#X connect 69 0 89 0;
#X connect 70 0 0 0;
#X connect 71 0 7 0;
#X connect 72 0 14 0;
#X connect 73 0 21 0;
#X connect 74 0 28 0;
#X connect 75 0 35 0;
#X connect 76 0 42 0;
#X connect 77 0 49 0;
#X connect 78 0 56 0;
#X connect 79 0 63 0;
#X connect 80 0 2 0;
#X connect 81 0 9 0;
#X connect 82 0 16 0;
#X connect 83 0 23 0;
#X connect 84 0 30 0;
#X connect 85 0 37 0;
#X connect 86 0 44 0;
#X connect 87 0 51 0;
#X connect 88 0 58 0;
#X connect 89 0 65 0;
#X connect 90 0 110 0;
#X connect 91 0 111 0;
#X connect 92 0 112 0;
#X connect 93 0 113 0;
#X connect 94 0 114 0;
#X connect 95 0 115 0;
#X connect 96 0 116 0;
#X connect 97 0 117 0;
#X connect 98 0 118 0;
#X connect 99 0 119 0;
#X connect 100 0 4 0;
#X connect 101 0 11 0;
#X connect 102 0 18 0;
#X connect 103 0 25 0;
#X connect 104 0 32 0;
#X connect 105 0 39 0;
#X connect 106 0 46 0;
#X connect 107 0 53 0;
#X connect 108 0 60 0;
#X connect 109 0 67 0;
#X restore 12 12 pd 1-0;
#X restore 335 -17 pd keyboard;
#X obj 335 27 spigot;
#X obj 397 12 tgl 17 1 empty empty KEYBOARD 20 8 0 10 #fcfcfc #000000 #000000 0 1;
#X obj 505 -23 tgl 17 0 empty empty PLAY_SCALE 20 8 0 10 #fcfcfc #000000 #000000 0 1;
#X obj 505 -1 metro 250;
#X msg 505 62 \$1 127 \, \$1 0;
#X obj 505 20 random 15;
#X obj 505 41 + 15;
#N canvas 351 87 432 373 spectrolog 0;
#N canvas 556 61 872 789 FFT_Analyse 0;
#X obj 101 102 inlet~;
#X obj 101 332 *~;
#X obj 132 331 *~;
#X obj 101 356 +~;
#X obj 102 377 powtodb~;
#N canvas 0 22 346 535 init_input_window 0;
#X obj 73 217 / 10;
#X obj 55 278 line 0 0.1;
#X msg 119 246 0;
#X obj 54 176 t f f b;
#X obj 54 239 pack;
#X obj 55 301 t f f;
#X obj 54 152 - 1;
#X obj 74 114 t f f;
#X obj 55 359 * 3.14159;
#X obj 55 381 sin;
#X msg 55 401 \$1 \$1;
#X obj 55 423 *;
#X text 119 334 0...0.99;
#X text 128 359 0...pi;
#X text 79 423 hanning;
#X msg 55 88 4096;
#X obj 100 88 f 4096;
#X obj 99 60 bng 15 250 50 0 empty empty empty 0 -6 0 8 #fcfcfc #000000 #000000;
#X obj 99 39 loadbang;
#X obj 74 333 / 4096;
#X obj 55 448 tabwrite \$0-window;
#X text 86 381 half-sine;
#X connect 0 0 4 1;
#X connect 1 0 5 0;
#X connect 2 0 1 0;
#X connect 3 0 4 0;
#X connect 3 1 0 0;
#X connect 3 2 2 0;
#X connect 4 0 1 0;
#X connect 5 0 19 0;
#X connect 5 1 20 1;
#X connect 6 0 3 0;
#X connect 7 0 6 0;
#X connect 7 1 19 1;
#X connect 8 0 9 0;
#X connect 9 0 10 0;
#X connect 10 0 11 0;
#X connect 11 0 20 0;
#X connect 15 0 7 0;
#X connect 16 0 7 0;
#X connect 17 0 16 0;
#X connect 18 0 17 0;
#X connect 19 0 8 0;
#X restore 161 276 pd init_input_window;
#N canvas 0 22 450 300 (subpatch) 0;
#X array \$0-lin_scope 2048 float 0;
#X coords 0 100 2047 0 200 140 1;
#X restore 110 621 graph;
#N canvas 0 22 822 328 init_norm 0;
#X obj 43 230 outlet;
#X obj 43 187 - 100;
#X floatatom 43 208 9 0 0 0 - - - 0;
#X text 108 169 leistung - techn. dB;
#X msg 43 69 4096;
#X obj 80 68 f 4096;
#X obj 80 47 bng 15 250 50 0 empty empty empty 0 -6 0 8 #fcfcfc #000000 #000000;
#X obj 80 26 loadbang;
#X obj 43 167 rmstodb;
#X obj 43 110 / 4;
#X text 74 103 faktor 2 wegen hanning;
#X text 74 114 weiterer faktor 2 \, weil wir nur die;
#X text 73 124 erste haelfte des konjungiert komplexen spektrum sehen;
#X text 108 135 bzw. bearbeiten \, somit nur die haelfte der spektralen energie;
#X connect 1 0 2 0;
#X connect 2 0 0 0;
#X connect 4 0 9 0;
#X connect 5 0 9 0;
#X connect 6 0 5 0;
#X connect 7 0 6 0;
#X connect 8 0 1 0;
#X connect 9 0 8 0;
#X restore 153 421 pd init_norm;
#X obj 100 231 *~;
#X obj 102 443 -~ 60.206;
#X obj 113 517 *~ 0.98;
#X obj 100 539 +~;
#X obj 101 471 *~ 0.02;
#X msg 314 481 1 \$1;
#X obj 314 502 -;
#X obj 314 458 clip 0 1;
#X obj 314 437 / 100;
#X floatatom 314 413 5 0.5 100 0 - - - 0;
#X obj 333 366 loadbang;
#X obj 100 277 fft~;
#X obj 463 557 line 0 0.1;
#X obj 463 602 / 2;
#X obj 463 622 mtof;
#X msg 463 536 6 \, 273 26.7;
#X obj 463 580 t f f;
#X obj 494 602 - 6;
#X obj 463 642 / 44100;
#X obj 463 663 * 4096;
#X msg 656 633 6;
#X obj 656 653 / 2;
#X obj 656 673 mtof;
#X floatatom 656 693 9 0 0 0 - - - 0;
#X text 723 694 Hz;
#X obj 754 654 / 2;
#X obj 754 673 mtof;
#X floatatom 754 693 9 0 0 0 - - - 0;
#X text 822 693 Hz;
#X msg 754 634 273;
#X obj 656 612 t b b;
#X obj 463 498 tgl 15 0 empty empty empty 0 -6 0 8 #fcfcfc #000000 #000000 0 1;
#X obj 463 458 loadbang;
#X msg 463 478 1;
#X obj 656 592 loadbang;
#X obj 468 245 loadbang;
#X obj 703 102 inlet;
#X obj 130 253 table \$0-window 4096;
#X obj 137 214 tabreceive~ \$0-window;
#X text 353 403 temporal lowpass;
#X text 355 415 parameter between 0 .. 100 %;
#X text 23 23 spectrum~;
#X text 120 23 draws the power of a spectrum in a logarithmic scale;
#X text 118 36 (by Thomas Musil);
#X obj 113 496 tabreceive~ \$0-lin_scope;
#X obj 100 564 tabsend~ \$0-lin_scope;
#X obj 463 685 tabread4 \$0-lin_scope;
#X obj 468 267 f \$0;
#X text 553 536 transformation to log scale;
#X msg 333 385 100;
#X obj 314 341 max 0.5;
#X obj 314 319 min 100;
#X obj 440 107 inlet;
#X text 96 81 audio sig;
#X text 700 81 ON/OFF;
#X text 427 86 (0 .. 100);
#X text 408 72 temporal lowpass;
#X obj 533 244 bng 15 250 50 0 empty empty empty 0 -6 0 8 #fcfcfc #000000 #000000;
#X obj 463 735 tabwrite \$0-s;
#X msg 468 296 \; \$1-s xticks 0 12 2;
#X msg 491 330 \; \$1-s yticks 0 5 2;
#X obj 462 516 metro 100;
#X obj 704 166 switch~ 4096 2;
#X obj 463 711 clip 0 100;
#X obj 773 101 loadbang;
#X msg 773 123 1;
#X connect 0 0 8 0;
#X connect 1 0 3 0;
#X connect 2 0 3 1;
#X connect 3 0 4 0;
#X connect 4 0 9 0;
#X connect 7 0 9 1;
#X connect 8 0 19 0;
#X connect 9 0 12 0;
#X connect 10 0 11 1;
#X connect 11 0 53 0;
#X connect 12 0 11 0;
#X connect 13 0 14 0;
#X connect 14 0 10 1;
#X connect 15 0 13 0;
#X connect 15 0 12 1;
#X connect 16 0 15 0;
#X connect 17 0 16 0;
#X connect 18 0 57 0;
#X connect 19 0 1 0;
#X connect 19 0 1 1;
#X connect 19 1 2 0;
#X connect 19 1 2 1;
#X connect 20 0 24 0;
#X connect 21 0 22 0;
#X connect 22 0 26 0;
#X connect 23 0 20 0;
#X connect 24 0 21 0;
#X connect 24 1 25 0;
#X connect 25 0 66 1;
#X connect 26 0 27 0;
#X connect 27 0 54 0;
#X connect 28 0 29 0;
#X connect 29 0 30 0;
#X connect 30 0 31 0;
#X connect 33 0 34 0;
#X connect 34 0 35 0;
#X connect 37 0 33 0;
#X connect 38 0 28 0;
#X connect 38 1 37 0;
#X connect 39 0 69 0;
#X connect 40 0 41 0;
#X connect 41 0 39 0;
#X connect 42 0 38 0;
#X connect 43 0 55 0;
#X connect 44 0 70 0;
#X connect 46 0 8 1;
#X connect 52 0 10 0;
#X connect 54 0 71 0;
#X connect 55 0 67 0;
#X connect 55 0 68 0;
#X connect 57 0 17 0;
#X connect 58 0 17 0;
#X connect 59 0 58 0;
#X connect 60 0 59 0;
#X connect 65 0 55 0;
#X connect 69 0 23 0;
#X connect 71 0 66 0;
#X connect 72 0 73 0;
#X connect 73 0 70 0;
#X restore 17 320 pd FFT_Analyse;
#X obj 63 299 inlet;
#X obj 17 299 inlet~;
#X obj 110 299 inlet;
#N canvas 0 22 450 300 (subpatch) 0;
#X array \$0-s 268 float 0;
#X coords 0 100 267 0 267 140 1;
#X restore 23 27 graph;
#X obj 297 42 cnv 15 1 1 empty empty -10 0 0 0 10 #fcfcfc #000000 0;
#X obj 297 154 cnv 15 1 1 empty empty -90 0 0 0 10 #fcfcfc #000000 0;
#X obj 297 98 cnv 15 1 1 empty empty -50 0 0 0 10 #fcfcfc #000000 0;
#X obj 297 70 cnv 15 1 1 empty empty -30 0 0 0 10 #fcfcfc #000000 0;
#X obj 297 126 cnv 15 1 1 empty empty -70 0 0 0 10 #fcfcfc #000000 0;
#X obj 18 171 cnv 15 1 1 empty empty 10 0 5 0 10 #fcfcfc #000000 0;
#X obj 66 171 cnv 15 1 1 empty empty 40 0 5 0 10 #fcfcfc #000000 0;
#X obj 115 171 cnv 15 1 1 empty empty 160 0 5 0 10 #fcfcfc #000000 0;
#X obj 162 171 cnv 15 1 1 empty empty 640 0 5 0 10 #fcfcfc #000000 0;
#X obj 210 171 cnv 15 1 1 empty empty 2k56 0 5 0 10 #fcfcfc #000000 0;
#X obj 258 171 cnv 15 1 1 empty empty 10k2 0 5 0 10 #fcfcfc #000000 0;
#X obj 138 184 cnv 15 1 1 empty empty 320 0 5 0 10 #fcfcfc #000000 0;
#X obj 282 184 cnv 15 1 1 empty empty 20k5 0 5 0 10 #fcfcfc #000000 0;
#X obj 42 181 cnv 15 1 1 empty empty 20 0 9 0 10 #fcfcfc #000000 0;
#X obj 90 184 cnv 15 1 1 empty empty 80 0 5 0 10 #fcfcfc #000000 0;
#X obj 186 184 cnv 15 1 1 empty empty 1k28 0 5 0 10 #fcfcfc #000000 0;
#X obj 234 184 cnv 15 1 1 empty empty 5k12 0 5 0 10 #fcfcfc #000000 0;
#X obj 46 168 cnv 15 1 1 empty empty | 0 7 0 10 #fcfcfc #000000 0;
#X obj 94 168 cnv 15 1 1 empty empty | 0 7 0 10 #fcfcfc #000000 0;
#X obj 142 168 cnv 15 1 1 empty empty | 0 7 0 10 #fcfcfc #000000 0;
#X obj 190 168 cnv 15 1 1 empty empty | 0 7 0 10 #fcfcfc #000000 0;
#X obj 238 168 cnv 15 1 1 empty empty | 0 7 0 10 #fcfcfc #000000 0;
#X obj 286 168 cnv 15 1 1 empty empty | 0 7 0 10 #fcfcfc #000000 0;
#X connect 1 0 0 1;
#X connect 2 0 0 0;
#X connect 3 0 0 2;
#X coords 0 -1 1 1 325 205 1 0 0;
#X restore 655 475 pd spectrolog;
#X text 697 102 MACETA;
#X text 723 126 A Mallet synthesized instrument called Maceta (plantpot).;
#X obj 381 571 hsl 128 16 0 1 0 0 empty \$0-drywet DRY/WET -2 -6 0 12 #7c7c7c #fcfcfc #000000 0 1;
#X obj 378 613 line~;
#X floatatom 493 587 0 0 0 0 - - - 0;
#X msg 378 592 \$1 20;
#X obj 293 704 +~;
#X obj 308 639 -~;
#X obj 293 660 *~;
#X obj 363 639 *~;
#X obj 363 528 re.spring~;
#X obj 308 613 sig~ 1;
#X obj 284 1000 dac~;
#X obj 168 704 vsl 19 162 0.01 1 1 1 empty empty empty 0 -9 0 12 #fcfcfc #000000 #000000 6003 1;
#X obj 214 704 inlet;
#X msg 214 737 set \$1;
#X obj 284 966 *~;
#X obj 244 927 sig~;
#X msg 165 927 set \$1;
#X obj 165 965 outlet;
#X connect 0 0 1 0;
#X connect 1 0 87 0;
#X connect 1 0 85 0;
#X connect 2 0 10 0;
#X connect 2 0 76 0;
#X connect 3 0 29 0;
#X connect 6 0 7 0;
#X connect 7 0 9 0;
#X connect 9 0 8 0;
#X connect 10 0 0 0;
#X connect 11 0 12 0;
#X connect 12 0 14 0;
#X connect 13 0 28 0;
#X connect 13 1 16 0;
#X connect 15 0 66 1;
#X connect 16 0 15 0;
#X connect 16 1 66 1;
#X connect 17 0 18 0;
#X connect 18 0 19 0;
#X connect 19 0 66 0;
#X connect 20 0 21 0;
#X connect 21 0 19 1;
#X connect 22 0 17 0;
#X connect 22 1 20 0;
#X connect 23 0 24 0;
#X connect 25 0 26 0;
#X connect 26 0 27 0;
#X connect 27 0 6 0;
#X connect 27 1 7 1;
#X connect 28 0 22 0;
#X connect 29 0 4 0;
#X connect 30 0 66 0;
#X connect 30 1 66 1;
#X connect 31 0 32 0;
#X connect 32 0 34 0;
#X connect 34 0 33 0;
#X connect 35 0 37 0;
#X connect 36 0 31 0;
#X connect 36 1 32 1;
#X connect 37 0 36 0;
#X connect 38 0 39 0;
#X connect 39 0 41 0;
#X connect 41 0 40 0;
#X connect 42 0 50 0;
#X connect 43 0 38 0;
#X connect 43 1 39 1;
#X connect 44 0 45 0;
#X connect 45 0 47 0;
#X connect 47 0 46 0;
#X connect 48 0 51 0;
#X connect 49 0 44 0;
#X connect 49 1 45 1;
#X connect 50 0 43 0;
#X connect 51 0 49 0;
#X connect 52 0 53 0;
#X connect 53 0 55 0;
#X connect 55 0 54 0;
#X connect 56 0 64 0;
#X connect 57 0 52 0;
#X connect 57 1 53 1;
#X connect 58 0 59 0;
#X connect 59 0 61 0;
#X connect 61 0 60 0;
#X connect 62 0 65 0;
#X connect 63 0 58 0;
#X connect 63 1 59 1;
#X connect 64 0 57 0;
#X connect 65 0 63 0;
#X connect 66 0 23 0;
#X connect 66 1 23 1;
#X connect 66 2 23 2;
#X connect 67 0 69 0;
#X connect 69 0 13 0;
#X connect 70 0 69 1;
#X connect 71 0 72 0;
#X connect 72 0 74 0;
#X connect 73 0 13 0;
#X connect 74 0 75 0;
#X connect 75 0 73 0;
#X connect 79 0 81 0;
#X connect 79 0 82 0;
#X connect 80 0 86 1;
#X connect 80 0 84 1;
#X connect 82 0 80 0;
#X connect 83 0 93 1;
#X connect 84 0 85 1;
#X connect 85 0 83 0;
#X connect 86 0 83 1;
#X connect 87 0 86 0;
#X connect 88 0 84 0;
#X connect 90 0 94 0;
#X connect 90 0 95 0;
#X connect 91 0 92 0;
#X connect 91 0 94 0 32.................WA...3A...vU....d....bK....;
#X connect 92 0 90 0;
#X connect 93 0 89 0;
#X connect 93 0 89 1;
#X connect 94 0 93 0;
#X connect 95 0 96 0;
#X restore 755 468 pd part4;
#X obj 277 172 ctlin 1;
#X obj 277 203 mtof;
#X obj 277 234 / 12544;
#X obj 429 203 mtof;
#X obj 429 234 / 12544;
#X obj 429 172 ctlin 2;
#X obj 593 203 mtof;
#X obj 593 234 / 12544;
#X obj 755 209 mtof;
#X obj 755 240 / 12544;
#X obj 593 172 ctlin 3;
#X obj 755 178 ctlin 4;
#X text 101 90 Control the volume with the Kor NanoKontrol 1 \; \; mtof used to give a logarithmic behavior, f 54;
#X connect 0 0 3 0 48.................P....b8+++OD....W++++Oy+++O.....y7+++C....fO++++;
#X connect 1 0 2 0 48.................P....37+++OD....N++++Gy+++O.....w7+++C....fO++++;
#X connect 2 0 1 0;
#X connect 3 0 0 0;
#X connect 4 0 5 0;
#X connect 5 0 4 0 48.................O.....8++++C....P++++Ky+++O.....x7+++C....fO++++;
#X connect 6 0 7 0;
#X connect 7 0 6 0 48.................L....37+++OC....N++++ay+++O.....17+++C....fO++++;
#X connect 8 0 9 0;
#X connect 9 0 10 0;
#X connect 10 0 2 0;
#X connect 11 0 12 0;
#X connect 12 0 3 0;
#X connect 13 0 11 0;
#X connect 14 0 15 0;
#X connect 15 0 4 0;
#X connect 16 0 17 0;
#X connect 17 0 6 0;
#X connect 18 0 14 0;
#X connect 19 0 16 0;
