#N canvas 137 139 1543 742 12;
#X declare -path else;
#X obj 612 221 hsl 162 19 0 2 0 0 empty empty empty -2 -10 0 12 #fcfcfc #000000 #000000 0 1;
#X obj 362 20 declare -path else;
#X obj 434 770 dac~;
#X obj 552 698 *~ 0.2;
#X obj 743 628 vsl 19 162 0 1 0 0 empty empty empty 0 -9 0 12 #fcfcfc #000000 #000000 0 1;
#X obj 173 624 *~ 0.2;
#X obj 63 497 vsl 19 162 0 1 0 0 empty empty empty 0 -9 0 12 #fcfcfc #000000 #000000 0 1;
#X obj 66 125 bng 15 250 50 0 empty empty empty 58 24 0 10 #dcdcdc #fc0400 #ff0400;
#X obj 130 124 play.file~ ./Samples/isthatyou.wav;
#X obj 132 172 play.file~ ./Samples/objets_son1.wav;
#X msg 98 124 0;
#X obj 61 173 bng 15 250 50 0 empty empty empty 58 24 0 10 #dcdcdc #fc0400 #ff0400;
#X msg 93 172 0;
#X obj 61 208 bng 15 250 50 0 empty empty empty 58 24 0 10 #dcdcdc #fc0400 #ff0400;
#X msg 93 207 0;
#X obj 132 207 play.file~ ./Samples/objets_son2.wav;
#X obj 62 243 bng 15 250 50 0 empty empty empty 58 24 0 10 #dcdcdc #fc0400 #ff0400;
#X msg 94 242 0;
#X obj 133 242 play.file~ ./Samples/objets_son3.wav;
#X obj 61 273 bng 15 250 50 0 empty empty empty 58 24 0 10 #dcdcdc #fc0400 #ff0400;
#X msg 93 272 0;
#X obj 132 272 play.file~ ./Samples/objets_son4.wav;
#X obj 61 304 bng 15 250 50 0 empty empty empty 58 24 0 10 #dcdcdc #fc0400 #ff0400;
#X msg 91 304 0;
#X obj 132 303 play.file~ ./Samples/objets_son5.wav;
#X obj 1019 361 +~;
#X obj 1035 205 vsl 19 75 -2 2 0 0 empty empty empty 0 -9 0 12 #fcfcfc #000000 #000000 0 1;
#X obj 1092 363 +~;
#X obj 1110 205 vsl 19 75 -2 2 0 0 empty empty empty 0 -9 0 12 #fcfcfc #000000 #000000 0 1;
#X obj 1166 363 +~;
#X obj 1184 205 vsl 19 75 -2 2 0 0 empty empty empty 0 -9 0 12 #fcfcfc #000000 #000000 0 1;
#X obj 1240 365 +~;
#X obj 1257 207 vsl 19 75 -2 2 0 0 empty empty empty 0 -9 0 12 #fcfcfc #000000 #000000 0 1;
#X obj 1313 364 +~;
#X obj 1330 207 vsl 19 75 -2 2 0 0 empty empty empty 0 -9 0 12 #fcfcfc #000000 #000000 0 1;
#X obj 1403 209 vsl 19 75 -2 2 0 0 empty empty empty 0 -9 0 12 #fcfcfc #000000 #000000 0 1;
#X obj 973 207 vsl 19 75 -2 2 0 0 empty empty empty 0 -9 0 12 #fcfcfc #000000 #000000 0 1;
#X obj 946 360 +~;
#X obj 611 310 *~ 1;
#X obj 654 268 nbx 5 18 -1e+37 1e+37 0 0 empty empty empty 1 -13 0 12 #fcfcfc #000000 #0400fc 0 256;
#X obj 1478 207 vsl 19 75 -2 2 0 0 empty empty empty 0 -9 0 12 #fcfcfc #000000 #000000 0 1;
#X obj 1387 366 +~;
#X obj 1459 364 +~;
#X floatatom 972 137 4 0 0 0 - - - 0;
#X obj 973 70 bng 19 250 50 0 empty empty empty 17 7 0 10 #dfdfdf #000000 #000000;
#N canvas 469 494 450 300 randommm 0;
#X obj 186 91 random 20;
#X obj 186 120 - 10;
#X obj 185 150 / 5;
#X obj 186 53 inlet;
#X obj 186 188 outlet;
#X connect 0 0 1 0;
#X connect 1 0 2 0;
#X connect 2 0 4 0;
#X connect 3 0 0 0;
#X restore 972 109 pd randommm;
#N canvas 469 494 450 300 randommm 0;
#X obj 186 91 random 20;
#X obj 186 120 - 10;
#X obj 185 150 / 5;
#X obj 186 53 inlet;
#X obj 186 188 outlet;
#X connect 0 0 1 0;
#X connect 1 0 2 0;
#X connect 2 0 4 0;
#X connect 3 0 0 0;
#X restore 1044 135 pd randommm;
#X obj 1118 27 bng 19 250 50 0 empty empty empty 17 7 0 10 #dfdfdf #000000 #000000;
#X obj 481 74 bng 19 250 50 0 empty empty empty 17 7 0 10 #dfdfdf #000000 #000000;
#X obj 481 105 metro 5000;
#X obj 1119 61 metro 100;
#X obj 945 305 nn~ /Users/thierry/Documents/Pd/Pretrained_models/isis.ts encode, f 74;
#X obj 946 408 nn~ /Users/thierry/Documents/Pd/Pretrained_models/isis.ts decode, f 74;
#X obj 221 452 openpanel;
#X symbolatom 221 486 84 0 0 0 - - - 16;
#X obj 225 428 bng 15 250 50 0 empty empty empty 58 24 0 10 #dcdcdc #fc0400 #ff0400;
#X msg 245 553 start;
#X msg 303 553 stop;
#X obj 221 588 play.file~;
#X msg 221 520 open \$1;
#X msg 1160 27 stop;
#X obj 888 173 nbx 4 18 -1e+37 1e+37 0 0 empty empty empty 0 -8 0 10 #e4e4e4 #373737 #373737 0 256;
#X obj 891 135 bng 19 250 50 0 empty empty empty 17 7 0 10 #dfdfdf #000000 #000000;
#X msg 362 553 loop \$1;
#X obj 362 533 tgl 15 0 empty empty empty 17 7 0 10 #dcdcdc #000000 #000000 0 1;
#X connect 0 0 38 1;
#X connect 0 0 39 0;
#X connect 3 0 2 0;
#X connect 3 0 2 1;
#X connect 4 0 3 1;
#X connect 5 0 2 0;
#X connect 5 0 2 1;
#X connect 6 0 5 1;
#X connect 7 0 8 0;
#X connect 8 0 5 0;
#X connect 8 0 38 0;
#X connect 9 0 5 0;
#X connect 9 0 38 0;
#X connect 10 0 8 0;
#X connect 11 0 9 0;
#X connect 12 0 9 0;
#X connect 13 0 15 0;
#X connect 14 0 15 0;
#X connect 15 0 5 0;
#X connect 15 0 38 0;
#X connect 16 0 18 0;
#X connect 17 0 18 0;
#X connect 18 0 5 0;
#X connect 18 0 38 0;
#X connect 19 0 21 0;
#X connect 20 0 21 0;
#X connect 21 0 5 0;
#X connect 21 0 38 0;
#X connect 22 0 24 0;
#X connect 23 0 24 0;
#X connect 24 0 5 0;
#X connect 24 0 38 0;
#X connect 25 0 52 1;
#X connect 26 0 25 1;
#X connect 27 0 52 2;
#X connect 28 0 27 1;
#X connect 29 0 52 3;
#X connect 30 0 29 1;
#X connect 31 0 52 4;
#X connect 32 0 31 1;
#X connect 33 0 52 5;
#X connect 34 0 33 1;
#X connect 35 0 41 1;
#X connect 36 0 37 1;
#X connect 37 0 52 0;
#X connect 38 0 51 0;
#X connect 40 0 42 1;
#X connect 41 0 52 6;
#X connect 42 0 52 7;
#X connect 44 0 45 0;
#X connect 44 0 46 0;
#X connect 45 0 43 0;
#X connect 45 0 36 0;
#X connect 45 0 28 0;
#X connect 45 0 30 0;
#X connect 45 0 32 0;
#X connect 45 0 35 0;
#X connect 46 0 26 0;
#X connect 46 0 34 0;
#X connect 47 0 50 0;
#X connect 48 0 49 0;
#X connect 50 0 45 0;
#X connect 50 0 46 0;
#X connect 51 0 37 0;
#X connect 51 1 25 0;
#X connect 51 2 27 0;
#X connect 51 3 29 0;
#X connect 51 4 31 0;
#X connect 51 5 33 0;
#X connect 51 6 41 0;
#X connect 51 7 42 0;
#X connect 52 0 3 0;
#X connect 53 0 54 0;
#X connect 53 0 59 0;
#X connect 55 0 53 0;
#X connect 56 0 58 0;
#X connect 57 0 58 0;
#X connect 58 0 5 0;
#X connect 58 0 38 0;
#X connect 59 0 58 0;
#X connect 60 0 50 0;
#X connect 61 0 36 0;
#X connect 61 0 26 0;
#X connect 61 0 28 0;
#X connect 61 0 30 0;
#X connect 61 0 32 0;
#X connect 61 0 34 0;
#X connect 61 0 35 0;
#X connect 61 0 40 0;
#X connect 62 0 61 0;
#X connect 63 0 58 0;
#X connect 64 0 63 0;
