#N canvas 137 139 1543 742 12;
#X declare -path else;
#X obj 612 221 hsl 162 19 0 2 0 0 empty empty empty -2 -10 0 12 #fcfcfc #000000 #000000 0 1;
#X obj 945 305 nn~ /Users/thierry/Documents/Pd/Pretrained_models/isis.ts encode, f 74;
#X obj 946 408 nn~ /Users/thierry/Documents/Pd/Pretrained_models/isis.ts decode, f 74;
#X obj 362 20 declare -path else;
#X obj 382 668 dac~;
#X obj 500 596 *~ 0.2;
#X obj 692 511 vsl 19 162 0 0.5 0 0 empty empty empty 0 -9 0 12 #fcfcfc #000000 #000000 0 1;
#X obj 259 499 *~ 0.2;
#X obj 149 497 vsl 19 162 0 0.5 0 0 empty empty empty 0 -9 0 12 #fcfcfc #000000 #000000 0 1;
#X obj 66 125 bng 15 250 50 0 empty empty empty 58 24 0 10 #dcdcdc #fc0400 #ff0400;
#X obj 130 124 play.file~ ./Samples/isthatyou.wav;
#X obj 132 172 play.file~ ./Samples/objets_son1.wav;
#X msg 98 124 0;
#X obj 306 394 bng 15 250 50 0 empty empty empty 58 24 0 10 #dcdcdc #fc0400 #ff0400;
#X msg 336 393 0;
#X obj 61 173 bng 15 250 50 0 empty empty empty 58 24 0 10 #dcdcdc #fc0400 #ff0400;
#X msg 93 172 0;
#X obj 61 208 bng 15 250 50 0 empty empty empty 58 24 0 10 #dcdcdc #fc0400 #ff0400;
#X msg 93 207 0;
#X obj 132 207 play.file~ ./Samples/objets_son2.wav;
#X obj 62 243 bng 15 250 50 0 empty empty empty 58 24 0 10 #dcdcdc #fc0400 #ff0400;
#X msg 94 242 0;
#X obj 133 242 play.file~ ./Samples/objets_son3.wav;
#X obj 61 273 bng 15 250 50 0 empty empty empty 58 24 0 10 #dcdcdc #fc0400 #ff0400;
#X msg 93 272 0;
#X obj 132 272 play.file~ ./Samples/objets_son4.wav;
#X obj 61 304 bng 15 250 50 0 empty empty empty 58 24 0 10 #dcdcdc #fc0400 #ff0400;
#X msg 93 303 0;
#X obj 132 303 play.file~ ./Samples/objets_son5.wav;
#X obj 1019 361 +~;
#X obj 1035 205 vsl 19 75 0 2 0 0 empty empty empty 0 -9 0 12 #fcfcfc #000000 #000000 0 1;
#X obj 1092 363 +~;
#X obj 1110 205 vsl 19 75 0 2 0 0 empty empty empty 0 -9 0 12 #fcfcfc #000000 #000000 0 1;
#X obj 1166 363 +~;
#X obj 1184 205 vsl 19 75 0 2 0 0 empty empty empty 0 -9 0 12 #fcfcfc #000000 #000000 0 1;
#X obj 1240 365 +~;
#X obj 1257 207 vsl 19 75 0 2 0 0 empty empty empty 0 -9 0 12 #fcfcfc #000000 #000000 0 1;
#X obj 1313 364 +~;
#X obj 1330 207 vsl 19 75 0 2 0 0 empty empty empty 0 -9 0 12 #fcfcfc #000000 #000000 0 1;
#X obj 1403 209 vsl 19 75 0 2 0 0 empty empty empty 0 -9 0 12 #fcfcfc #000000 #000000 0 1;
#X obj 974 206 vsl 19 75 0 10 0 0 empty empty empty 0 -9 0 12 #fcfcfc #000000 #000000 0 1;
#X obj 946 360 +~;
#X obj 611 310 *~ 1;
#X obj 654 268 nbx 5 18 -1e+37 1e+37 0 0 empty empty empty 1 -13 0 12 #fcfcfc #000000 #0400fc 0 256;
#X obj 1478 207 vsl 19 75 0 2 0 0 empty empty empty 0 -9 0 12 #fcfcfc #000000 #000000 0 1;
#X obj 1387 366 +~;
#X obj 1459 364 +~;
#X obj 307 417 play.file~ put_a_long_track_here.wav;
#X connect 0 0 42 1;
#X connect 0 0 43 0;
#X connect 1 0 41 0;
#X connect 1 1 29 0;
#X connect 1 2 31 0;
#X connect 1 3 33 0;
#X connect 1 4 35 0;
#X connect 1 5 37 0;
#X connect 1 6 45 0;
#X connect 1 7 46 0;
#X connect 2 0 5 0;
#X connect 5 0 4 0;
#X connect 5 0 4 1;
#X connect 6 0 5 1;
#X connect 7 0 4 0;
#X connect 7 0 4 1;
#X connect 8 0 7 1;
#X connect 9 0 10 0;
#X connect 10 0 7 0;
#X connect 10 0 42 0;
#X connect 11 0 7 0;
#X connect 11 0 42 0;
#X connect 12 0 10 0;
#X connect 13 0 47 0;
#X connect 14 0 47 0;
#X connect 15 0 11 0;
#X connect 16 0 11 0;
#X connect 17 0 19 0;
#X connect 18 0 19 0;
#X connect 19 0 7 0;
#X connect 19 0 42 0;
#X connect 20 0 22 0;
#X connect 21 0 22 0;
#X connect 22 0 7 0;
#X connect 22 0 42 0;
#X connect 23 0 25 0;
#X connect 24 0 25 0;
#X connect 25 0 7 0;
#X connect 25 0 42 0;
#X connect 26 0 28 0;
#X connect 27 0 28 0;
#X connect 28 0 7 0;
#X connect 28 0 42 0;
#X connect 29 0 2 1;
#X connect 30 0 29 1;
#X connect 31 0 2 2;
#X connect 32 0 31 1;
#X connect 33 0 2 3;
#X connect 34 0 33 1;
#X connect 35 0 2 4;
#X connect 36 0 35 1;
#X connect 37 0 2 5;
#X connect 38 0 37 1;
#X connect 39 0 45 1;
#X connect 40 0 41 1;
#X connect 41 0 2 0;
#X connect 42 0 1 0;
#X connect 44 0 46 1;
#X connect 45 0 2 6;
#X connect 46 0 2 7;
#X connect 47 0 7 0;
#X connect 47 0 42 0;
