#N canvas 308 69 860 715 12;
#N canvas 731 131 538 609 delay-controls 0;
#N canvas 0 0 450 300 delay-controls 0;
#X restore 170 548 pd delay-controls;
#X obj 65 410 inlet~;
#X obj 100 123 cnv 15 150 250 empty empty DelayManual 30 240 1 16 #e0e0e0 #404040 0;
#X obj 139 212 vsl 15 100 0 150 0 0 empty empty Direct-Sd -15 130 1 12 #f8fc00 #0400fc #0400fc 0 1;
#X obj 50 321 / 100;
#X obj 120 318 nbx 3 14 0 1 0 0 empty empty empty 0 -8 1 12 #f8fc00 #0400fc #0400fc 0 256;
#X obj 193 212 vsl 15 100 1 150 0 0 empty empty Delay-Sd -15 130 1 12 #f8fc00 #0400fc #0400fc 0 1;
#X obj 189 318 nbx 3 14 0 1 0 0 empty empty empty 0 -8 1 12 #f8fc00 #0400fc #0400fc 0 256;
#X obj 123 162 nbx 2 16 0 99 0 0 empty empty Feedback -15 25 1 14 #f8fc00 #0400fc #0400fc 0 256;
#X obj 266 321 / 100;
#X obj 191 161 nbx 3 16 2 500 1 0 empty empty Delay 0 25 1 14 #f8fc00 #0400fc #0400fc 0 256;
#X obj 139 498 outlet~;
#N canvas 91 0 641 812 delay 0;
#X obj 350 83 route int float list;
#X obj 350 121 t f 5;
#X obj 428 123 unpack 0 0;
#X obj 350 175 pack 0 0;
#X obj 350 293 t f b;
#X floatatom 429 153 5 0 0 0 - - - 0;
#X obj 350 206 speedlim;
#X obj 350 239 unpack 0 0;
#X obj 377 321 tgl 15 0 empty empty empty 17 7 0 10 #fcfcfc #000000 #000000 0 1;
#X obj 377 352 pack 0 0;
#X obj 305 304 + 1;
#X floatatom 305 330 5 0 0 0 - - - 0;
#X obj 305 358 gate 2;
#X floatatom 127 424 5 0 0 0 - - - 0;
#X floatatom 316 422 5 0 0 0 - - - 0;
#X obj 510 467 line~;
#X obj 127 553 *~;
#X obj 316 553 *~;
#X obj 462 497 -~ 1;
#X obj 462 520 *~ -1;
#X obj 127 588 +~;
#N canvas 902 380 376 385 feeback 0;
#X obj 70 27 inlet~;
#X obj 144 57 route int float list;
#X obj 144 27 inlet;
#X obj 144 92 pack 0 20;
#X obj 70 212 *~;
#X obj 70 245 outlet~;
#X obj 144 119 line~;
#X obj 144 152 /~ 100;
#X obj 232 197 tgl 15 0 empty empty empty 17 7 0 10 #fcfcfc #000000 #000000 0 1;
#X obj 232 229 metro 50;
#X obj 232 266 snapshot~;
#X floatatom 232 300 5 0 0 0 - - - 0;
#X connect 0 0 4 0;
#X connect 1 0 3 0;
#X connect 1 1 3 0;
#X connect 1 2 6 0;
#X connect 2 0 1 0;
#X connect 3 0 6 0;
#X connect 4 0 5 0;
#X connect 6 0 7 0;
#X connect 7 0 4 1;
#X connect 7 0 10 0;
#X connect 8 0 9 0;
#X connect 9 0 10 0;
#X connect 10 0 11 0;
#X restore 30 157 pd feeback;
#N canvas 912 48 450 300 vol-mono 0;
#X obj 70 27 inlet~;
#X obj 144 57 route int float list;
#X obj 144 27 inlet;
#X obj 144 92 pack 0 20;
#X obj 70 212 *~;
#X obj 70 245 outlet~;
#X obj 144 119 line~;
#X obj 144 153 /~ 100;
#X connect 0 0 4 0;
#X connect 1 0 3 0;
#X connect 1 1 3 0;
#X connect 1 2 6 0;
#X connect 2 0 1 0;
#X connect 3 0 6 0;
#X connect 4 0 5 0;
#X connect 6 0 7 0;
#X connect 7 0 4 1;
#X restore 127 679 pd vol-mono;
#X obj 126 755 outlet~;
#X obj -38 74 inlet~;
#X obj 97 75 inlet;
#X text 93 52 feedback;
#X obj 201 641 inlet;
#X text 182 620 delay volume;
#X obj 350 21 inlet;
#X text 349 2 delay;
#N canvas 912 48 450 300 vol-mono 0;
#X obj 70 27 inlet~;
#X obj 144 57 route int float list;
#X obj 144 27 inlet;
#X obj 144 92 pack 0 20;
#X obj 70 212 *~;
#X obj 70 245 outlet~;
#X obj 144 119 line~;
#X obj 144 153 /~ 100;
#X connect 0 0 4 0;
#X connect 1 0 3 0;
#X connect 1 1 3 0;
#X connect 1 2 6 0;
#X connect 2 0 1 0;
#X connect 3 0 6 0;
#X connect 4 0 5 0;
#X connect 6 0 7 0;
#X connect 7 0 4 1;
#X restore -36 679 pd vol-mono;
#X obj -37 755 outlet~;
#X text -59 772 straight sound;
#X text 98 773 delayed sound;
#X text -47 54 In Sound;
#X obj 38 640 inlet;
#X text -5 620 straight volume;
#X floatatom 232 687 5 0 0 0 - - - 0;
#X floatatom 112 118 5 0 0 0 - - - 0;
#X floatatom 407 35 5 0 0 0 - - - 0;
#X obj 127 455 delread~ insound-neighbors 0;
#X obj 316 454 delread~ insound-neighbors 0;
#X obj 17 222 delwrite~ insound-neighbors 1000;
#X connect 0 0 1 0;
#X connect 0 1 1 0;
#X connect 0 2 2 0;
#X connect 1 0 3 0;
#X connect 1 1 5 0;
#X connect 2 0 3 0;
#X connect 2 1 5 0;
#X connect 3 0 6 0;
#X connect 4 0 12 1;
#X connect 4 1 8 0;
#X connect 5 0 3 1;
#X connect 5 0 6 1;
#X connect 6 0 7 0;
#X connect 7 0 4 0;
#X connect 7 1 9 1;
#X connect 8 0 9 0;
#X connect 8 0 10 0;
#X connect 9 0 15 0;
#X connect 10 0 11 0;
#X connect 11 0 12 0;
#X connect 12 0 13 0;
#X connect 12 1 14 0;
#X connect 13 0 41 0;
#X connect 14 0 42 0;
#X connect 15 0 18 0;
#X connect 15 0 17 1;
#X connect 16 0 20 0;
#X connect 17 0 20 1;
#X connect 18 0 19 0;
#X connect 19 0 16 1;
#X connect 20 0 21 0;
#X connect 20 0 22 0;
#X connect 21 0 43 0;
#X connect 22 0 23 0;
#X connect 24 0 31 0;
#X connect 24 0 43 0;
#X connect 25 0 21 1;
#X connect 25 0 39 0;
#X connect 27 0 22 1;
#X connect 27 0 38 0;
#X connect 29 0 0 0;
#X connect 29 0 40 0;
#X connect 31 0 32 0;
#X connect 36 0 31 1;
#X connect 41 0 16 0;
#X connect 42 0 17 0;
#X restore 139 452 pd delay;
#X obj 207 499 outlet~;
#X connect 1 0 12 0;
#X connect 3 0 12 1;
#X connect 3 0 4 0;
#X connect 4 0 5 0;
#X connect 6 0 12 3;
#X connect 6 0 9 0;
#X connect 8 0 12 2;
#X connect 9 0 7 0;
#X connect 10 0 12 4;
#X connect 12 0 11 0;
#X connect 12 1 13 0;
#X coords 0 -1 1 1 149 253 2 99 120;
#X restore 826 369 pd delay-controls;
#X obj 669 924 dac~;
#X floatatom 320 406 8 0 0 0 - - - 12;
#X obj 335 577 osc~;
#X obj 335 546 +~;
#X obj 385 494 osc~;
#X obj 386 523 *~;
#X obj 385 270 *~ 1;
#X floatatom 456 471 5 0 0 0 - - - 0;
#X obj 318 605 *~;
#X msg 105 272 stop;
#X floatatom 163 304 5 0 0 0 - - - 0;
#X msg 97 486 0;
#X obj 81 523 vline~;
#X obj 464 193 random 100;
#X msg 81 441 0 \, 1 10 \, 0.5 10 10 \, 0 20 30;
#N canvas 731 131 538 609 delay-controls 0;
#N canvas 0 22 450 300 delay-controls 0;
#X restore 170 548 pd delay-controls;
#X obj 26 14 inlet~;
#X obj 100 123 cnv 15 150 250 empty empty DelayManual 30 240 1 16 #e0e0e0 #404040 0;
#X obj 126 224 vsl 15 100 0 100 0 0 empty empty Direct-Sd -15 130 1 12 #f8fc00 #0400fc #0400fc 0 1;
#X obj 50 321 / 100;
#X obj 120 318 nbx 3 14 0 1 0 0 empty empty empty 0 -8 1 12 #f8fc00 #0400fc #0400fc 0 256;
#X obj 193 218 vsl 15 100 1 100 0 0 empty empty Delay-Sd -15 130 1 12 #f8fc00 #0400fc #0400fc 0 1;
#X obj 189 318 nbx 3 14 0 1 0 0 empty empty empty 0 -8 1 12 #f8fc00 #0400fc #0400fc 0 256;
#X obj 123 162 nbx 2 16 0 97 0 0 empty empty Feedback -15 25 1 14 #f8fc00 #0400fc #0400fc 0 256;
#X obj 266 321 / 100;
#X obj 191 161 nbx 3 16 2 400 1 0 empty empty Delay 0 25 1 14 #f8fc00 #0400fc #0400fc 0 256;
#X obj 139 498 outlet~;
#N canvas 91 22 641 812 delay 0;
#X obj 350 83 route int float list;
#X obj 350 121 t f 5;
#X obj 428 123 unpack 0 0;
#X obj 350 175 pack 0 0;
#X obj 350 293 t f b;
#X floatatom 429 153 5 0 0 0 - - - 0;
#X obj 350 206 speedlim;
#X obj 350 239 unpack 0 0;
#X obj 377 321 tgl 15 0 empty empty empty 17 7 0 10 #fcfcfc #000000 #000000 0 1;
#X obj 377 352 pack 0 0;
#X obj 305 304 + 1;
#X floatatom 305 330 5 0 0 0 - - - 0;
#X obj 305 358 gate 2;
#X floatatom 127 424 5 0 0 0 - - - 0;
#X floatatom 316 422 5 0 0 0 - - - 0;
#X obj 510 467 line~;
#X obj 127 553 *~;
#X obj 316 553 *~;
#X obj 462 497 -~ 1;
#X obj 462 520 *~ -1;
#X obj 127 588 +~;
#N canvas 902 380 376 385 feeback 0;
#X obj 70 27 inlet~;
#X obj 144 57 route int float list;
#X obj 144 27 inlet;
#X obj 144 92 pack 0 20;
#X obj 70 212 *~;
#X obj 70 245 outlet~;
#X obj 144 119 line~;
#X obj 144 152 /~ 100;
#X obj 232 197 tgl 15 0 empty empty empty 17 7 0 10 #fcfcfc #000000 #000000 0 1;
#X obj 232 229 metro 50;
#X obj 232 266 snapshot~;
#X floatatom 232 300 5 0 0 0 - - - 0;
#X connect 0 0 4 0;
#X connect 1 0 3 0;
#X connect 1 1 3 0;
#X connect 1 2 6 0;
#X connect 2 0 1 0;
#X connect 3 0 6 0;
#X connect 4 0 5 0;
#X connect 6 0 7 0;
#X connect 7 0 4 1;
#X connect 7 0 10 0;
#X connect 8 0 9 0;
#X connect 9 0 10 0;
#X connect 10 0 11 0;
#X restore 30 157 pd feeback;
#N canvas 912 48 450 300 vol-mono 0;
#X obj 70 27 inlet~;
#X obj 144 57 route int float list;
#X obj 144 27 inlet;
#X obj 144 92 pack 0 20;
#X obj 70 212 *~;
#X obj 70 245 outlet~;
#X obj 144 119 line~;
#X obj 144 153 /~ 100;
#X connect 0 0 4 0;
#X connect 1 0 3 0;
#X connect 1 1 3 0;
#X connect 1 2 6 0;
#X connect 2 0 1 0;
#X connect 3 0 6 0;
#X connect 4 0 5 0;
#X connect 6 0 7 0;
#X connect 7 0 4 1;
#X restore 127 679 pd vol-mono;
#X obj 126 755 outlet~;
#X obj -38 74 inlet~;
#X obj 97 75 inlet;
#X text 93 52 feedback;
#X obj 201 641 inlet;
#X text 182 620 delay volume;
#X obj 350 21 inlet;
#X text 349 2 delay;
#N canvas 912 48 450 300 vol-mono 0;
#X obj 70 27 inlet~;
#X obj 144 57 route int float list;
#X obj 144 27 inlet;
#X obj 144 92 pack 0 20;
#X obj 70 212 *~;
#X obj 70 245 outlet~;
#X obj 144 119 line~;
#X obj 144 153 /~ 100;
#X connect 0 0 4 0;
#X connect 1 0 3 0;
#X connect 1 1 3 0;
#X connect 1 2 6 0;
#X connect 2 0 1 0;
#X connect 3 0 6 0;
#X connect 4 0 5 0;
#X connect 6 0 7 0;
#X connect 7 0 4 1;
#X restore -36 679 pd vol-mono;
#X obj -37 755 outlet~;
#X text -59 772 straight sound;
#X text 98 773 delayed sound;
#X text -47 54 In Sound;
#X obj 38 640 inlet;
#X text -5 620 straight volume;
#X floatatom 232 687 5 0 0 0 - - - 0;
#X floatatom 112 118 5 0 0 0 - - - 0;
#X floatatom 407 35 5 0 0 0 - - - 0;
#X obj 17 222 delwrite~ insound-synFM 1000;
#X obj 127 455 delread~ insound-synFM 0;
#X obj 316 454 delread~ insound-synFM 0;
#X connect 0 0 1 0;
#X connect 0 1 1 0;
#X connect 0 2 2 0;
#X connect 1 0 3 0;
#X connect 1 1 5 0;
#X connect 2 0 3 0;
#X connect 2 1 5 0;
#X connect 3 0 6 0;
#X connect 4 0 12 1;
#X connect 4 1 8 0;
#X connect 5 0 3 1;
#X connect 5 0 6 1;
#X connect 6 0 7 0;
#X connect 7 0 4 0;
#X connect 7 1 9 1;
#X connect 8 0 9 0;
#X connect 8 0 10 0;
#X connect 9 0 15 0;
#X connect 10 0 11 0;
#X connect 11 0 12 0;
#X connect 12 0 13 0;
#X connect 12 1 14 0;
#X connect 13 0 42 0;
#X connect 14 0 43 0;
#X connect 15 0 18 0;
#X connect 15 0 17 1;
#X connect 16 0 20 0;
#X connect 17 0 20 1;
#X connect 18 0 19 0;
#X connect 19 0 16 1;
#X connect 20 0 21 0;
#X connect 20 0 22 0;
#X connect 21 0 41 0;
#X connect 22 0 23 0;
#X connect 24 0 31 0;
#X connect 24 0 41 0;
#X connect 25 0 21 1;
#X connect 25 0 39 0;
#X connect 27 0 22 1;
#X connect 27 0 38 0;
#X connect 29 0 0 0;
#X connect 29 0 40 0;
#X connect 31 0 32 0;
#X connect 36 0 31 1;
#X connect 42 0 16 0;
#X connect 43 0 17 0;
#X restore 139 452 pd delay;
#X obj 207 499 outlet~;
#X connect 1 0 12 0;
#X connect 3 0 12 1;
#X connect 3 0 4 0;
#X connect 4 0 5 0;
#X connect 6 0 12 3;
#X connect 6 0 9 0;
#X connect 8 0 12 2;
#X connect 9 0 7 0;
#X connect 10 0 12 4;
#X connect 12 0 11 0;
#X connect 12 1 13 0;
#X coords 0 -1 1 1 151 255 2 99 120;
#X restore 318 666 pd delay-controls;
#X obj 26 272 inlet;
#X obj 163 241 loadbang;
#X obj 410 127 inlet;
#X obj 262 125 loadbang;
#X obj 262 151 t b b;
#X obj 440 301 loadbang;
#X obj 440 327 t b b;
#X obj 81 274 bng 15 250 50 0 empty empty empty 17 7 0 10 #fcfcfc #000000 #000000;
#X obj 464 129 bng 15 250 50 0 empty empty empty 17 7 0 10 #fcfcfc #000000 #000000;
#X msg 492 127 stop;
#X msg 484 355 set 1500;
#X msg 294 179 set 1500;
#X obj 297 267 vsl 15 128 100 10000 1 0 empty empty empty 0 -9 0 10 #fcfcfc #000000 #000000 0 0;
#X obj 431 355 vsl 15 128 200 10000 1 0 empty empty empty 0 -9 0 10 #fcfcfc #000000 #000000 0 0;
#X floatatom 464 245 5 0 0 0 - - - 0;
#X msg 505 245 set 0.01;
#X obj 464 221 / 5000;
#X obj 81 346 metro 100;
#X msg 163 272 set 100;
#X obj 464 171 metro 100;
#X obj 827 231 noise~;
#N canvas 0 22 450 300 (subpatch) 0;
#X array gain 256 float 3;
#A 0 1 1 1 1 1 0.995236 0.990472 0.985708 0.978402 0.975862 0.973321 0.97078 0.963475 0.958711 0.953947 0.946006 0.94283 0.939654 0.931714 0.92695 0.922186 0.908952 0.900482 0.882484 0.863428 0.784025 0.723679 0.676038 0.627338 0.604046 0.564239 0.547723 0.531208 0.514692 0.48039 0.462604 0.444818 0.427031 0.395633 0.382022 0.36841 0.354798 0.341186 0.327574 0.302165 0.290368 0.278571 0.266774 0.254978 0.243181 0.224124 0.216864 0.209605 0.202345 0.195085 0.187826 0.175484 0.170402 0.165321 0.160239 0.155157 0.155157 0.155157 0.0979874 0.0979874 0.0979874 0.0979874 0.0979874 0.0979874 0.0979874 0.0979874 0.0979874 0.0979874 0.0979874 0.0979874 0.0979874 0.0979874 0.0979874 0.0979874 0.0979874 0.0979874 0.0979874 0.0979874 0.0979874 0.0979874 0.0979874 0.0979874 0.0979874 0.0979874 0.0979874 0.0979874 0.0979874 0.0979874 0.0979874 0.0979874 0.0979874 0.0979874 0.0979874 0.0979874 0.0979874 0.0979874 0.0979874 0.0979874 0.0979874 0.0979874 0.0979874 0.0979874 0.0979874 0.0979874 0.0979874 0.0979874 0.0979874 0.0979874 0.0979874 0.0979874 0.0979874 0.0979874 0.0979874 0.0979874 0.0979874 0.0979874 0.0992578 0.100528 0.101799 0.103069 0.103251 0.103432 0.103614 0.103795 0.103977 0.104158 0.104184 0.10421 0.104236 0.104262 0.104288 0.104314 0.104317 0.104321 0.104325 0.104328 0.104332 0.104336 0.104336 0.104337 0.104337 0.104338 0.104339 0.104339 0.104339 0.104339 0.104339 0.104339 0.104339 0.10434 0.10434 0.10434 0.10434 0.10434 0.10434 0.10434 0.10434 0.10434 0.10434 0.10434 0.10434 0.10434 0.10434 0.10434 0.10434 0.10434 0.10434 0.10434 0.105247 0.106155 0.107062 0.107969 0.108877 0.109784 0.110994 0.112204 0.113414 0.114624 0.115834 0.117094 0.118355 0.119615 0.120876 0.122136 0.123405 0.124673 0.125942 0.127211 0.12848 0.12975 0.13102 0.13229 0.13356 0.13483 0.135148 0.135466 0.135783 0.135847 0.13591 0.135974 0.136037 0.136048 0.136058 0.136069 0.136079 0.13609 0.136092 0.136094 0.136096 0.136099 0.136099 0.136099 0.1361 0.1361 0.137371 0.138641 0.139912 0.141182 0.141436 0.141691 0.141945 0.142199 0.14352 0.144841 0.146162 0.147484 0.149402 0.15132 0.153239 0.153718 0.154198 0.154678 0.156955 0.159232 0.157195 0.150163 0.143132 0.098327 0.999643 0.999714 0.999786 0.999857 0.999929 0.992878 0.985828 0.978778 0.971728 0.964678 0.957628 0.950578 0.943528;
#X coords 0 1 256 -0.01 506 159 1;
#X restore 832 32 graph;
#X text 810 31 1;
#X text 832 199 0;
#X text 795 187 0.01;
#N canvas 852 92 571 669 fft-analyse 0;
#X obj 15 199 *~;
#X obj 14 99 inlet~;
#X obj 15 253 rfft~;
#X obj 14 388 *~;
#X obj 56 388 *~;
#X obj 77 260 *~;
#X obj 16 541 *~;
#X obj 77 318 /~ 768;
#X obj 78 286 *~;
#X obj 15 434 rifft~;
#X obj 16 601 outlet~;
#X obj 76 231 tabreceive~ gain;
#X obj 36 175 tabreceive~ hanning;
#X obj 37 516 tabreceive~ hanning;
#X text 112 272 amplification of;
#X text 119 290 array values;
#X text 140 320 Normalization;
#X obj 13 44 block~ 512 4;
#X obj 187 5 inlet;
#X obj 187 39 route start stop;
#X obj 14 138 *~;
#X obj 277 140 tgl 15 0 empty empty empty 17 7 0 10 #fcfcfc #000000 #000000 0 1;
#X obj 277 164 metro 100;
#X obj 277 199 snapshot~;
#X floatatom 277 230 5 0 0 0 - - - 0;
#X msg 187 68 1 200;
#X obj 187 100 line~;
#X msg 284 71 0 5000;
#X connect 0 0 2 0;
#X connect 1 0 20 0;
#X connect 2 0 3 0;
#X connect 2 1 4 0;
#X connect 3 0 9 0;
#X connect 4 0 9 1;
#X connect 5 0 8 0;
#X connect 5 0 8 1;
#X connect 6 0 10 0;
#X connect 7 0 3 1;
#X connect 7 0 4 1;
#X connect 8 0 7 0;
#X connect 9 0 6 0;
#X connect 11 0 5 0;
#X connect 11 0 5 1;
#X connect 12 0 0 1;
#X connect 13 0 6 1;
#X connect 18 0 19 0;
#X connect 19 0 25 0;
#X connect 19 1 27 0;
#X connect 20 0 0 0;
#X connect 21 0 22 0;
#X connect 22 0 23 0;
#X connect 23 0 24 0;
#X connect 25 0 26 0;
#X connect 26 0 20 1;
#X connect 26 0 23 0;
#X connect 27 0 26 0;
#X restore 826 264 pd fft-analyse;
#N canvas 416 316 467 443 fen-hanning 0;
#X obj 45 7 inlet;
#N canvas 0 22 450 300 (subpatch) 0;
#X array hanning 512 float 0;
#X coords 0 1 511 0 200 120 1;
#X restore 42 233 graph;
#X msg 120 87 0;
#X obj 53 111 osc~;
#X obj 53 63 samplerate~;
#X obj 53 134 *~ -0.5;
#X obj 53 157 +~ 0.5;
#X text 28 223 1;
#X text 20 343 0;
#X text 36 356 0;
#X obj 53 87 / 512;
#X obj 45 40 bng 15 250 50 0 empty empty empty 0 -6 0 8 #fcfcfc #000000 #000000;
#X text 136 359 511;
#X obj 45 182 tabwrite~ hanning;
#X text 109 39 Hanning window:;
#X text 211 123 comment;
#X floatatom 138 123 5 0 0 0 - - - 0;
#X connect 0 0 11 0;
#X connect 2 0 3 1;
#X connect 3 0 5 0;
#X connect 4 0 10 0;
#X connect 5 0 6 0;
#X connect 6 0 13 0;
#X connect 10 0 3 0;
#X connect 10 0 16 0;
#X connect 11 0 4 0;
#X connect 11 0 2 0;
#X connect 11 0 13 0;
#X restore 992 261 pd fen-hanning;
#X msg 889 232 start;
#X msg 939 232 stop;
#X obj 992 231 loadbang;
#X text 833 164 comment;
#N canvas 0 236 746 534 pan1 0;
#X obj 158 77 r pan1-position;
#X obj 158 110 route int float list;
#X obj 158 145 pack 0 20;
#X obj 158 179 line~ 64;
#X floatatom 299 283 5 0 0 0 - - - 0;
#X obj 157 249 -~ 1;
#X obj 157 282 *~ -1;
#X obj 157 318 sqrt~;
#X obj 212 318 sqrt~;
#X obj 495 90 loadbang;
#X obj 567 90 r pan1-init;
#X obj 495 131 bng 15 250 50 0 empty empty empty 17 7 0 10 #fcfcfc #000000 #000000;
#X obj 78 434 outlet~;
#X obj 138 434 outlet~;
#X obj 54 217 inlet~;
#X msg 496 170 \; pan1-position 0.5;
#X msg 530 248 \; pan1-init bang;
#X obj 540 348 hsl 128 15 0 127 0 0 empty empty empty -2 -8 0 10 #fcfcfc #000000 #000000 0 1;
#X floatatom 537 389 5 0 0 0 - - - 0;
#X obj 299 222 metro 50;
#X obj 299 196 tgl 15 0 empty empty empty 17 7 0 10 #fcfcfc #000000 #000000 0 1;
#X obj 298 166 loadbang;
#X obj 299 251 snapshot~;
#X obj 537 422 s pan1-position;
#X obj 158 212 /~ 127;
#X obj 78 366 *~;
#X obj 138 365 *~;
#X obj 537 315 inlet;
#X connect 0 0 1 0;
#X connect 1 0 2 0;
#X connect 1 1 2 0;
#X connect 1 2 3 0;
#X connect 2 0 3 0;
#X connect 3 0 24 0;
#X connect 5 0 6 0;
#X connect 6 0 7 0;
#X connect 7 0 25 1;
#X connect 8 0 22 0;
#X connect 8 0 26 1;
#X connect 9 0 11 0;
#X connect 10 0 11 0;
#X connect 11 0 15 0;
#X connect 14 0 25 0;
#X connect 14 0 26 0;
#X connect 17 0 18 0;
#X connect 18 0 23 0;
#X connect 19 0 22 0;
#X connect 20 0 19 0;
#X connect 21 0 20 0;
#X connect 22 0 4 0;
#X connect 24 0 5 0;
#X connect 24 0 8 0;
#X connect 25 0 12 0;
#X connect 26 0 13 0;
#X connect 27 0 17 0;
#X restore 851 828 pd pan1;
#X obj 962 833 hsl 128 15 0 127 0 0 empty empty empty -2 -8 0 10 #fcfcfc #000000 #000000 0 1;
#X floatatom 992 676 5 0 0 0 - - - 0;
#X obj 991 757 *~ 127;
#X obj 897 713 tgl 15 0 empty empty empty 17 7 0 10 #fcfcfc #000000 #000000 0 1;
#X obj 897 775 snapshot~;
#X obj 991 732 +~ 1;
#X obj 992 706 osc~;
#X obj 897 742 metro 5;
#X connect 0 0 48 0;
#X connect 0 1 48 0;
#X connect 3 0 9 1;
#X connect 4 0 3 0;
#X connect 5 0 6 0;
#X connect 6 0 4 1;
#X connect 7 0 5 0;
#X connect 9 0 16 0;
#X connect 10 0 34 0;
#X connect 11 0 34 1;
#X connect 12 0 13 0;
#X connect 13 0 9 0;
#X connect 14 0 33 0;
#X connect 15 0 13 0;
#X connect 16 0 1 0;
#X connect 16 1 1 1;
#X connect 17 0 34 0;
#X connect 18 0 35 0;
#X connect 19 0 36 0;
#X connect 20 0 21 0;
#X connect 21 0 29 0;
#X connect 21 1 28 0;
#X connect 22 0 23 0;
#X connect 23 0 30 0;
#X connect 23 1 27 0;
#X connect 24 0 34 0;
#X connect 25 0 36 0;
#X connect 26 0 36 0;
#X connect 27 0 30 0;
#X connect 28 0 7 0;
#X connect 28 0 29 0;
#X connect 29 0 7 0;
#X connect 29 0 4 0;
#X connect 29 0 2 0;
#X connect 30 0 8 0;
#X connect 30 0 6 1;
#X connect 31 0 7 1;
#X connect 32 0 31 0;
#X connect 33 0 31 0;
#X connect 34 0 15 0;
#X connect 35 0 11 0;
#X connect 36 0 14 0;
#X connect 37 0 42 0;
#X connect 42 0 0 0;
#X connect 44 0 42 1;
#X connect 45 0 42 1;
#X connect 46 0 43 0;
#X connect 48 0 1 0;
#X connect 48 1 1 1;
#X connect 49 0 48 1;
#X connect 50 0 55 0;
#X connect 51 0 53 0;
#X connect 52 0 56 0;
#X connect 53 0 48 1;
#X connect 54 0 51 0;
#X connect 55 0 54 0;
#X connect 56 0 53 0;
