#N canvas 0 22 1165 733 16;
#X obj 31 559 catch~ \$0-output;
#X obj 31 637 dac~ 1 2;
#X obj 215 525 tgl 24 0 empty empty empty 17 7 0 10 -4032 -1 -1 0 1
;
#X obj 215 554 metro 200;
#X obj 215 583 tabwrite~ \$0-scope;
#N canvas 0 22 450 278 (subpatch) 0;
#X array \$0-scope 8820 float 0;
#X coords 0 1 8820 -1 200 140 1;
#X restore 415 554 graph;
#X obj 31 206 bng 24 250 50 0 empty empty empty 17 7 0 10 -4034 -1
-1;
#X msg 31 235 0 \, 1 200;
#X obj 31 264 line~;
#X text 128 248 <- Ramp Generator;
#X obj 31 372 -~ 0.25;
#X obj 31 401 cos~;
#X obj 31 469 throw~ \$0-output;
#X obj 31 332 *~ 20;
#X obj 31 298 sqrt~;
#X obj 31 435 lop~ 1000;
#X obj 341 232 bng 24 250 50 0 empty empty empty 17 7 0 10 -4034 -1
-1;
#X obj 341 261 t b b;
#X msg 341 290 1 \, 0 100;
#X obj 341 319 line~;
#X obj 341 348 pow~ 4;
#X obj 341 377 *~;
#X obj 521 319 line~;
#X obj 521 348 pow~ 4;
#X obj 521 377 *~;
#X obj 625 295 noise~;
#X msg 521 290 1 \, 0 200;
#X obj 341 406 +~;
#X obj 341 469 throw~ \$0-output;
#X obj 625 324 hip~ 3000;
#X obj 625 353 bp~ 5000 2;
#X obj 341 435 lop~ 4000;
#X obj 415 353 osc~ 200;
#X obj 761 264 bng 24 250 50 0 empty empty empty 17 7 0 10 -4034 -1
-1;
#X obj 761 322 line~;
#X obj 761 351 pow~ 4;
#X obj 761 380 *~;
#X obj 888 356 hip~ 8000;
#X obj 888 327 hip~ 8000;
#X obj 761 443 throw~ \$0-output;
#X obj 888 153 phasor~ 350;
#X obj 888 182 *~ 2;
#X obj 888 211 -~ 1;
#X obj 1008 182 *~ 2;
#X obj 1008 211 -~ 1;
#X obj 1008 153 phasor~ 800;
#X obj 888 240 +~;
#X obj 888 298 hip~ 8000;
#X obj 761 409 *~ 4;
#X obj 1062 216 noise~;
#X obj 1062 245 /~ 4;
#X msg 761 293 1 \, 0 100;
#X obj 312 30 tgl 24 0 empty empty empty 17 7 0 10 -4032 -1 -1 0 1
;
#X obj 312 64 metro 100;
#X obj 312 153 random 3;
#X obj 312 182 sel 0 1 2;
#X obj 426 95 i;
#X obj 476 95 + 1;
#X obj 426 153 sel 0;
#X obj 31 603 /~ 5;
#X msg 426 182 seed 1652;
#X text 625 270 // SNARES;
#X text 415 328 // DRUM;
#X text 888 386 // 3-Pole Highpass;
#X obj 888 269 +~;
#X text 105 389 <- Sine Waveshaper;
#X text 31 529 // MASTER OUTPUT;
#X text 888 123 // DETUNED OSCILLATORS;
#X text 371 231 –– SNARE DRUM –––––––––––––––––––––
;
#X text 761 93 –– HIHAT –––––––––––––––––––––––––––
;
#X text 91 298 <- Pitch Bend;
#X text 91 332 <- Pitch;
#X text 31 175 –– BASS DRUM –––––––––––––
;
#X text 526 182 <- Pattern Seed;
#X obj 426 124 % 8;
#X text 466 124 <- Number of Steps;
#X connect 0 0 4 0;
#X connect 0 0 59 0;
#X connect 2 0 3 0;
#X connect 3 0 4 0;
#X connect 6 0 7 0;
#X connect 7 0 8 0;
#X connect 8 0 14 0;
#X connect 10 0 11 0;
#X connect 11 0 15 0;
#X connect 13 0 10 0;
#X connect 14 0 13 0;
#X connect 15 0 12 0;
#X connect 16 0 17 0;
#X connect 17 0 18 0;
#X connect 17 1 26 0;
#X connect 18 0 19 0;
#X connect 19 0 20 0;
#X connect 20 0 21 0;
#X connect 21 0 27 0;
#X connect 22 0 23 0;
#X connect 23 0 24 0;
#X connect 24 0 27 1;
#X connect 25 0 29 0;
#X connect 26 0 22 0;
#X connect 27 0 31 0;
#X connect 29 0 30 0;
#X connect 30 0 24 1;
#X connect 31 0 28 0;
#X connect 32 0 21 1;
#X connect 33 0 51 0;
#X connect 34 0 35 0;
#X connect 35 0 36 0;
#X connect 36 0 48 0;
#X connect 37 0 36 1;
#X connect 38 0 37 0;
#X connect 40 0 41 0;
#X connect 41 0 42 0;
#X connect 42 0 46 0;
#X connect 43 0 44 0;
#X connect 44 0 46 1;
#X connect 45 0 43 0;
#X connect 46 0 64 0;
#X connect 47 0 38 0;
#X connect 48 0 39 0;
#X connect 49 0 50 0;
#X connect 50 0 64 1;
#X connect 51 0 34 0;
#X connect 52 0 53 0;
#X connect 53 0 54 0;
#X connect 53 0 56 0;
#X connect 54 0 55 0;
#X connect 55 0 6 0;
#X connect 55 1 16 0;
#X connect 55 2 33 0;
#X connect 56 0 57 0;
#X connect 56 0 74 0;
#X connect 57 0 56 1;
#X connect 58 0 60 0;
#X connect 59 0 1 0;
#X connect 59 0 1 1;
#X connect 60 0 54 0;
#X connect 64 0 47 0;
#X connect 74 0 58 0;
