#N canvas 827 239 527 327 12;
#N canvas 0 22 450 278 (subpatch) 0;
#X text 0 0 plugdatainfo <?xml version="1.0" encoding="UTF-8"?> <plugdatainfo/>;
#X coords 0 1 100 -1 1 1 1;
#X restore 0 0 graph;
#X obj 656 614 out~;
#X obj 803 593 scope~ 130 130 2 3 128 -1 1 100 0 0 0 255 255 255 25 25 25 57 57 57 0 empty;
#X obj 656 549 *~ 1;
#X obj 392 241 bl.saw~;
#X obj 392 65 notein;
#X obj 392 113 mono -high;
#X floatatom 392 144 5 0 0 0 - - - 12;
#X floatatom 788 211 5 0 0 0 - - - 12;
#X text 824 211 Velocity;
#X text 322 143 MIDI note;
#X obj 392 179 mtof;
#X floatatom 392 211 5 0 0 0 - - - 12;
#X obj 656 481 *~;
#X obj 788 247 > 0;
#X obj 791 278 tgl 25 0 empty empty empty 17 7 0 10 #191919 #ffffff #ffffff 0 1;
#X text 824 268 Gate, f 6;
#X text 693 481 VCA, f 5;
#X obj 791 337 adsr~ -log 1 250 0.5 500;
#X obj 392 440 lowpass~ 1000 0.7;
#X floatatom 469 198 5 0 0 0 - - - 12;
#X obj 469 225 f2s~ 20;
#X obj 469 325 clip~ 20 20000;
#X obj 469 170 hsl 128 17 0 127 0 1 empty empty Cutoff -2 -8 0 10 #191919 #ffffff #ffffff 3632 1;
#X obj 469 293 mtof~;
#X obj 469 264 +~;
#X floatatom 604 235 5 0 0 0 - - - 12;
#X obj 604 262 f2s~ 20;
#X obj 604 207 hsl 128 17 0 127 0 1 empty empty Env\ Amount -2 -8 0 10 #191919 #ffffff #ffffff 7379 1;
#X obj 604 291 *~;
#X text 525 289 <- exp. FM;
#X floatatom 596 376 5 0 0 0 - - - 12;
#X obj 596 403 f2s~ 20;
#X obj 596 348 hsl 128 17 0.4 7 1 1 empty empty Resonance -2 -8 0 10 #191919 #ffffff #ffffff 6896 1;
#X obj 656 511 drive~;
#X text 708 510 <- Soft clipper distortion, f 21;
#X obj 897 278 nbx 4 18 1 1000 0 1 empty empty Attack 0 -8 0 10 #191919 #ffffff #ffffff 1 256;
#X text 351 325 prevent clicking ->, f 16;
#X text 653 403 <- interpolator, f 13;
#X connect 3 0 1 0;
#X connect 3 0 1 1;
#X connect 3 0 2 0;
#X connect 4 0 19 0;
#X connect 5 0 6 0;
#X connect 5 1 6 1;
#X connect 6 0 7 0;
#X connect 6 1 8 0;
#X connect 7 0 11 0;
#X connect 8 0 14 0;
#X connect 11 0 12 0;
#X connect 12 0 4 0;
#X connect 13 0 34 0;
#X connect 14 0 15 0;
#X connect 15 0 18 0;
#X connect 18 0 13 1;
#X connect 18 0 29 1;
#X connect 19 0 13 0;
#X connect 20 0 21 0;
#X connect 21 0 25 0;
#X connect 22 0 19 1;
#X connect 23 0 20 0;
#X connect 24 0 22 0;
#X connect 25 0 24 0;
#X connect 26 0 27 0;
#X connect 27 0 29 0;
#X connect 28 0 26 0;
#X connect 29 0 25 1;
#X connect 31 0 32 0;
#X connect 32 0 19 2;
#X connect 33 0 31 0;
#X connect 34 0 3 0;
#X connect 36 0 18 1;
