#N canvas 20 139 1094 726 10;
#X obj 275 206 r u1;
#X obj 331 206 r u2;
#X obj 387 206 r u3;
#X obj 443 206 r u4;
#X obj 499 206 r u5;
#X obj 555 206 r u6;
#X obj 611 206 r u7;
#X obj 667 206 r u8;
#X obj 275 223 nK2-unit;
#X obj 331 223 nK2-unit;
#X obj 443 223 nK2-unit;
#X obj 387 223 nK2-unit;
#X obj 555 223 nK2-unit;
#X obj 499 223 nK2-unit;
#X obj 667 223 nK2-unit;
#X obj 611 223 nK2-unit;
#N canvas 87 364 743 410 play 0;
#X obj 47 110 outlet;
#X obj 269 109 outlet;
#X obj 553 115 outlet;
#X obj 169 109 outlet;
#X obj 637 113 outlet;
#X obj 47 76 nK2-bouton;
#X obj 269 76 nK2-bouton;
#X obj 553 80 nK2-bouton;
#X obj 169 76 nK2-bouton;
#X obj 636 80 nK2-bouton;
#X obj 636 45 r nK2-record;
#X obj 169 42 r nK2-play;
#X obj 553 46 r nK2-stop;
#X obj 269 44 r nK2-forward;
#X obj 47 43 r nK2-backward;
#X text 22 12 regroupement de données en entrée;
#X obj 469 113 outlet;
#X obj 469 78 nK2-bouton;
#X obj 469 44 r nK2-cycle;
#X connect 5 0 0 0;
#X connect 6 0 1 0;
#X connect 7 0 2 0;
#X connect 8 0 3 0;
#X connect 9 0 4 0;
#X connect 10 0 9 0;
#X connect 11 0 8 0;
#X connect 12 0 7 0;
#X connect 13 0 6 0;
#X connect 14 0 5 0;
#X connect 17 0 16 0;
#X connect 18 0 17 0;
#X restore 101 225 pd play;
#X f 11;
#X obj 81 253 tgl 30 0 empty empty empty 17 7 0 10 #fcfcfc #000000 #000000 0 1;
#X obj 114 253 tgl 30 0 empty empty empty 17 7 0 10 #fcfcfc #000000 #000000 0 1;
#X obj 147 253 tgl 30 0 empty empty empty 17 7 0 10 #fcfcfc #000000 #000000 0 1;
#X obj 116 298 tgl 30 0 empty empty empty 17 7 0 10 #fcfcfc #000000 #000000 0 1;
#X obj 149 298 tgl 30 0 empty empty empty 17 7 0 10 #fcfcfc #000000 #000000 0 1;
#X text 151 260 >>;
#X text 89 260 <<;
#X text 118 306 stop;
#X text 121 261 >;
#X text 158 306 o;
#X obj 81 297 tgl 30 0 empty empty empty 17 7 0 10 #fcfcfc #000000 #000000 0 1;
#X text 79 306 cycle;
#X obj 723 224 nK2-unit;
#X obj 723 207 r u9;
#N canvas 124 45 1490 818 nK1 0;
#X floatatom 34 127 5 0 0 0 - - - 0;
#X floatatom 164 64 5 0 0 0 - - - 0;
#X floatatom 107 104 5 0 0 0 - - - 0;
#X obj 55 63 ctlin;
#X obj 34 152 pack f f;
#X text 150 105 bouton/potentiomètre;
#X text 78 128 valeur;
#X obj 35 603 send nK2-slider-1;
#X obj 52 586 send nK2-slider-2;
#X obj 70 569 send nK2-slider-3;
#X obj 88 552 send nK2-slider-4;
#X obj 105 535 send nK2-slider-5;
#X obj 123 518 send nK2-slider-6;
#X obj 141 501 send nK2-slider-7;
#X obj 289 600 send nK2-potentio-1;
#X obj 302 580 send nK2-potentio-2;
#X obj 320 563 send nK2-potentio-3;
#X obj 337 546 send nK2-potentio-4;
#X obj 355 529 send nK2-potentio-5;
#X obj 373 512 send nK2-potentio-6;
#X obj 390 495 send nK2-potentio-7;
#X obj 408 478 send nK2-potentio-8;
#X obj 553 607 send nK2-S-1;
#X obj 571 590 send nK2-S-2;
#X obj 584 570 send nK2-S-3;
#X obj 602 553 send nK2-S-4;
#X obj 620 536 send nK2-S-5;
#X obj 637 519 send nK2-S-6;
#X obj 655 502 send nK2-S-7;
#X obj 673 485 send nK2-S-8;
#X text 333 166 S = 32 à 39 \, R = 48 à 55;
#X obj 802 587 send nK2-M-1;
#X obj 820 570 send nK2-M-2;
#X obj 838 553 send nK2-M-3;
#X obj 856 536 send nK2-M-4;
#X obj 873 519 send nK2-M-5;
#X obj 891 502 send nK2-M-6;
#X obj 909 485 send nK2-M-7;
#X obj 926 468 send nK2-M-8;
#X obj 1132 513 send nK2-cycle;
#X obj 1085 567 send nK2-backward;
#X obj 1117 530 send nK2-forward;
#X obj 1145 495 send nK2-stop;
#X obj 1099 549 send nK2-play;
#X obj 1155 472 send nK2-record;
#X obj 45 723 r nK2-slider-1;
#X obj 34 703 r nK2-potentio-1;
#X obj 56 743 r nK2-S-1;
#X obj 67 763 r nK2-M-1;
#X obj 34 853 s u1;
#X obj 153 853 s u2;
#X obj 153 703 r nK2-potentio-2;
#X obj 164 723 r nK2-slider-2;
#X obj 175 743 r nK2-S-2;
#X obj 186 763 r nK2-M-2;
#X obj 393 827 nK2-multi-in;
#X obj 271 703 r nK2-potentio-3;
#X obj 282 723 r nK2-slider-3;
#X obj 293 743 r nK2-S-3;
#X obj 304 763 r nK2-M-3;
#X obj 271 853 s u3;
#X obj 393 703 r nK2-potentio-4;
#X obj 404 723 r nK2-slider-4;
#X obj 415 743 r nK2-S-4;
#X obj 426 763 r nK2-M-4;
#X obj 393 853 s u4;
#X obj 520 703 r nK2-potentio-5;
#X obj 531 723 r nK2-slider-5;
#X obj 542 743 r nK2-S-5;
#X obj 553 763 r nK2-M-5;
#X obj 631 707 r nK2-potentio-6;
#X obj 642 727 r nK2-slider-6;
#X obj 653 747 r nK2-S-6;
#X obj 664 767 r nK2-M-6;
#X obj 520 853 s u5;
#X obj 631 857 s u6;
#X obj 741 703 r nK2-potentio-7;
#X obj 752 723 r nK2-slider-7;
#X obj 763 743 r nK2-S-7;
#X obj 774 763 r nK2-M-7;
#X obj 741 853 s u7;
#X obj 851 706 r nK2-potentio-8;
#X obj 862 726 r nK2-slider-8;
#X obj 873 746 r nK2-S-8;
#X obj 884 766 r nK2-M-8;
#X obj 851 856 s u8;
#X text 33 26 distribution des sorties du contrôleur;
#X obj 34 827 nK2-multi-in;
#X obj 153 827 nK2-multi-in;
#X obj 271 827 nK2-multi-in;
#X obj 520 827 nK2-multi-in;
#X obj 631 831 nK2-multi-in;
#X obj 741 827 nK2-multi-in;
#X obj 851 830 nK2-multi-in;
#X obj 158 484 send nK2-slider-8;
#X text 88 166 sliders = 1 à 9 \, potentios = 16 à 23;
#X obj 176 466 send nK2-slider-9;
#X obj 963 829 nK2-multi-in;
#X obj 963 705 r nK2-potentio-9;
#X obj 974 725 r nK2-slider-9;
#X obj 985 745 r nK2-S-9;
#X obj 996 765 r nK2-M-9;
#X obj 963 855 s u9;
#X obj 424 460 send nK2-potentio-9;
#X obj 687 464 send nK2-S-9;
#X obj 940 450 send nK2-M-9;
#X obj 35 197 route 1 2 3 4 5 6 7 8 9 10 11 12 13 14 15 16 17 18 19 21 23 25 27 29 30 32 34 20 22 24 26 28 31 33 35 36 37 38 39 40 41, f 188;
#X text 28 278 1;
#X text 53 279 2;
#X text 79 278 3;
#X text 103 278 4;
#X text 126 278 5;
#X text 151 278 6;
#X text 176 277 7;
#X text 198 277 8, f 2;
#X text 224 278 9;
#X text 272 278 10;
#X text 295 279 11;
#X text 317 278 12;
#X text 343 280 13;
#X text 368 279 14;
#X text 393 279 15;
#X text 420 280 16;
#X text 445 280 17;
#X text 466 280 18;
#X text 520 281 19;
#X text 547 280 21;
#X text 569 281 23;
#X text 595 284 25;
#X text 619 284 27;
#X text 642 284 29;
#X text 668 284 30;
#X text 690 283 32;
#X text 768 284 20;
#X text 794 284 22;
#X text 820 284 24;
#X text 844 284 26;
#X text 868 285 28;
#X text 898 284 31;
#X text 922 286 33;
#X text 945 288 35;
#X text 1001 291 36;
#X text 1029 290 37;
#X text 1055 291 38;
#X text 564 341;
#X text 714 284 34;
#X text 1081 291 39;
#X text 1126 291 41;
#X text 1106 291 40;
#X obj 151 89 outlet;
#X obj 31 104 outlet;
#X connect 0 0 4 1;
#X connect 2 0 4 0;
#X connect 3 0 0 0;
#X connect 3 0 150 0;
#X connect 3 1 2 0;
#X connect 3 1 149 0;
#X connect 3 2 1 0;
#X connect 4 0 106 0;
#X connect 45 0 87 1;
#X connect 46 0 87 0;
#X connect 47 0 87 2;
#X connect 48 0 87 3;
#X connect 51 0 88 0;
#X connect 52 0 88 1;
#X connect 53 0 88 2;
#X connect 54 0 88 3;
#X connect 55 0 65 0;
#X connect 56 0 89 0;
#X connect 57 0 89 1;
#X connect 58 0 89 2;
#X connect 59 0 89 3;
#X connect 61 0 55 0;
#X connect 62 0 55 1;
#X connect 63 0 55 2;
#X connect 64 0 55 3;
#X connect 66 0 90 0;
#X connect 67 0 90 1;
#X connect 68 0 90 2;
#X connect 69 0 90 3;
#X connect 70 0 91 0;
#X connect 71 0 91 1;
#X connect 72 0 91 2;
#X connect 73 0 91 3;
#X connect 76 0 92 0;
#X connect 77 0 92 1;
#X connect 78 0 92 2;
#X connect 79 0 92 3;
#X connect 81 0 93 0;
#X connect 82 0 93 1;
#X connect 83 0 93 2;
#X connect 84 0 93 3;
#X connect 87 0 49 0;
#X connect 88 0 50 0;
#X connect 89 0 60 0;
#X connect 90 0 74 0;
#X connect 91 0 75 0;
#X connect 92 0 80 0;
#X connect 93 0 85 0;
#X connect 97 0 102 0;
#X connect 98 0 97 0;
#X connect 99 0 97 1;
#X connect 100 0 97 2;
#X connect 101 0 97 3;
#X connect 106 0 7 0;
#X connect 106 1 8 0;
#X connect 106 2 9 0;
#X connect 106 3 10 0;
#X connect 106 4 11 0;
#X connect 106 5 12 0;
#X connect 106 6 13 0;
#X connect 106 7 94 0;
#X connect 106 8 96 0;
#X connect 106 9 14 0;
#X connect 106 10 15 0;
#X connect 106 11 16 0;
#X connect 106 12 17 0;
#X connect 106 13 18 0;
#X connect 106 14 19 0;
#X connect 106 15 20 0;
#X connect 106 16 21 0;
#X connect 106 17 103 0;
#X connect 106 18 22 0;
#X connect 106 19 23 0;
#X connect 106 20 24 0;
#X connect 106 21 25 0;
#X connect 106 22 26 0;
#X connect 106 23 27 0;
#X connect 106 24 28 0;
#X connect 106 25 29 0;
#X connect 106 26 104 0;
#X connect 106 27 31 0;
#X connect 106 28 32 0;
#X connect 106 29 33 0;
#X connect 106 30 34 0;
#X connect 106 31 35 0;
#X connect 106 32 37 0;
#X connect 106 33 38 0;
#X connect 106 34 105 0;
#X connect 106 35 40 0;
#X connect 106 36 43 0;
#X connect 106 37 41 0;
#X connect 106 38 39 0;
#X connect 106 39 42 0;
#X connect 106 40 44 0;
#X restore 139 72 pd nK1;
#X floatatom 138 114 3 0 0 0 - - - 24;
#X floatatom 205 114 3 0 0 0 - - - 24;
#X text 139 40 Korg NanoKontrol1;
#X connect 0 0 8 0;
#X connect 1 0 9 0;
#X connect 2 0 11 0;
#X connect 3 0 10 0;
#X connect 4 0 13 0;
#X connect 5 0 12 0;
#X connect 6 0 15 0;
#X connect 7 0 14 0;
#X connect 16 0 17 0;
#X connect 16 1 18 0;
#X connect 16 2 19 0;
#X connect 16 3 27 0;
#X connect 16 4 20 0;
#X connect 16 5 21 0;
#X connect 30 0 29 0;
#X connect 31 0 32 0;
#X connect 31 1 33 0;
